<svg xmlns="http://www.w3.org/2000/svg" xml:space="preserve" id="Capa_1" x="0" y="0" style="enable-background:new 0 0 200 156.7" viewBox="0 0 200 156.7"><style>.st1{fill:#3b4b54}.st4{fill:#8f8749}.st6{fill:#fff}</style><path d="M4.6 3.2h192.7v77.5H4.6z" style="fill:#f2ce4e"></path><path d="M40.3 77.6c.2.2.3.5.5.7 0 0 .2 0 .2-.1V78c-.2-.2-.4-.3-.6-.5l-.1.1z" class="st1"></path><path d="M4.6 80.3h136.3c-.1-.6-1.9-1.8-3.4-1.9-.6 0-1.1-.2-1.4-.8-.2-.3-.5-.6-.8-.7-.8-.5-1.5-1.1-2.2-1.7-.8-.7-2-1-3-1.4h-.3c-.6-.9-1-1.9-1.7-2.7-1.1-1.3-2.4-2.5-3.9-3.3-.1-.1-.2-.3-.3-.4l-1.5-1.5-.5-.5c-.7-.9-.7-2.1-1.2-3-1-2-2.1-3.9-3.2-5.9-.3-.6-.5-.6-.8 0-.2.4-.5.9-.7 1.3h-.3l-.6-1.5c-.3-.7-.4-1.5-.7-2.2-.4-.9-.5-1.8-.5-2.8 0-.6 0-1.2-.3-1.7-1-1.7-2.1-3.2-3.1-4.9l-.3-.3c-.4-.4-.8-.9-1.2-1.3-.3-.3-.6-.6-.8-.9-.3.3-.6.7-.8 1-.4.7-.6 1.5-1 2.3-.4.7-1.1.7-1.5 0-.2-.3-.3-.6-.5-.9-.3-.6-.5-.7-1.1-.2-.4.3-.6.3-.8-.1-.6-.7-1.3-1.2-2.3-1.3-.3 0-.6-.2-.7-.5-.2-.4-.6-.5-1-.7-.7-.3-1.4-.6-2-1-1.3-1.1-2.6-2.3-3.9-3.4-.3.2-.4.3-.6.4-.5-1.5-1.7-2.3-2.6-3.3-.6-.6-1.6-1-2.4-1.5l-.6.9c-.6-.4-1.1-.8-1.7-1.2l-.6-.3c-.6-.7-1.1-1.5-1.8-2.3-.4-.4-.8-.7-1.2-1.1-.7-.7-1.6-1.4-2.2-2.2-1.1-1.4-2-2.9-3-4.4-.1-.2-.4-.4-.6-.4-1-.1-1.9.1-2.8.7-.8.5-1.5 1.2-2 2-.1.1-.3.2-.4.3-.4.4-.9.7-1.3 1.2-1 1.6-2 3.3-3 4.9-.5.7-.9 1.6-1.9 1.7-.5.1-.7.5-.9 1-.3.7-.7 1.4-1.1 2-.3.4-.7.7-1 1.1-.7 1.2-1.5 2.2-3.1 2.3-.2 0-.4.2-.7.3-1.2.5-2.4 1.1-3.7 1.6-.5.2-1 .2-1.5.3l-5.1.9c-.2 0-.4.1-.5.2-.2.4-.5.8-.9 1.1v.1c-.1.2-.3.5-.5.5h-.6c-2 1-4.8 1.2-6.1 1.8-1.2.5-2.1 1.3-3.4 1.7-.1 0-.2 0-.2.1-2 .7-10.5 3.7-10.5 3.8-4.2 1.4-8.6 1.4-12.8 3-2.6 1-4.5-.3-6.9.3v25.4z" style="fill:#d3764c"></path><path d="M130.5 76.4s.1 0 .1-.1c-.1 0-.1 0-.1.1-.1 0-.1 0 0 0-.1 0-.1 0 0 0zM89.6 80.3c.5-.1 1-.2 1.5-.4 1.6-.7 3.2-.1 4.8-.3.5-.1.7.1.5.6-2.3.1-4.5.1-6.8.1zM111.4 80.1c.6-.1 1.2-.2 1.9-.3.2 0 .4-.1.6 0 .4.1.8.2 1.3.3-.4.1-.7.2-1.1.3h-2.9c0-.2.1-.2.2-.3zM34.3 78.9h1.8c.1.5-.1.7-.6.7-.4 0-.8 0-1.2-.1v-.6zM96.9 80.3c.1-.2.1-.5.2-.5h1.8c-.1.2-.2.3-.3.5h-1.7zM77.8 54.9c.1.4.3.7.4 1.1.1 0 .1 0 .2-.1 0-.2-.1-.4-.1-.7.1 0 .1-.1.2-.1.2.3.5.6.7.8-.3.2-.5.3-.8.4.3.2.5.4.7.6.3.4.5.3.7 0 .7-.8 1.4-1.6 1.7-2.7 0-.1.1-.3.3-.4V55c-.1 0-.2-.1-.3-.1-.2.2 0 1.5.2 1.7-.2.6-.3.7-.9.3-.1-.1-.4 0-.5.1-.2.2-.3.4-.4.7.1.1.2.3.3.4-.1.1-.3.2-.3.3 0 .7-.2 1.5.4 2.2.2.2.1.5.2.8 0 .1 0 .2-.1.4.1 0 .1 0 .2.1.2-.6.5-1.1.7-1.7.1 0 .2.1.2.1-.1.2-.2.3-.3.5.2.2.1 1 .8.7 0 .3.1.5.2.9.2-.2.3-.3.3-.5.2-.6.4-1.1.4-1.7 0-.4 0-.9-.7-1 0 .4-.1.8-.1 1.2-.6-.5-.6-1.2-.6-1.8.1-.7.2-1.3.1-2 .4-.9.9-1.8.8-2.8v-.2c.6-.3.5-.9.7-1.4.1-.2 0-.6 0-.9-.1-.4-.2-.7-.3-1-.3-.7-.4-1.3.1-1.9.1-.1.1-.5 0-.8-.3-.8 0-1.5.4-2.2.3-.6.3-1.2.3-1.9-.2-1.1 0-2.2-.2-3.3-.2-1.1.3-2.1.5-3.2.1-.7.6-1.4 1-2.1.1-.2.6-.1.9-.1.3-.5.8-1 1.2-1.6.8.4.9.6.7 1.4-.2.7-.2 1.4-.2 2.1-.1.6-.1 1.2-.3 1.7-.2.7-.6 1.4-.8 2.1-.1.2-.1.4-.1.6.2-.2.3-.4.5-.6-.5.8-.1 1.5 0 2.2.1.4 0 .9-.1 1.4.1-.2.3-.5.4-.7.1 0 .2.1.2.1-.3.6-.7 1.1-.9 1.7-.2.6-.4 1.2-.5 1.9.7-.1.8.3.8.7 0 .4.3.7.4 1 .3.8.1 1.5 0 2.3-.2 1.2-1 2.1-1.5 3.1-.1.2-.2.6-.2.8v1.2c0 .2 0 .5.1.7-.1-.2-.2-.5-.4-.7l-.3-.3c-.1.1-.3.3-.3.4.1.6.2 1.3.3 1.9.7-.8.7-.8.7-1.2h.7c0-.3.1-.5.1-.8h.1c.1.3.2.6.3 1l.1.1c.3-1 .8-1.7 1.8-2.2-.4.6-.8 1.1-1 1.7-.3.6-.4 1.2-.4 1.8 1.2-.2 1.1-1.4 1.7-2 .2-.1.7-.2.7-.2 0-.6-.1-1.2-.2-1.8.2.3.5.6 1 1.1-.1-.5-.1-.9-.1-1.4.5.1.7.3.7.8.1.8.2 1.5.3 2.4-.4-.2-.8-.3-1.1-.5-.3.3-.6.6-.9 1 0 .1.1.4.2.6.8.3.8-.8 1.7-.9-.3.5-.6.8-.9 1.2.3-.1.6-.3.9-.4 0 .2.1.4.1.6.4.2 1-.3 1.1.5-.1.1-.3.1-.6.2.2.8.4 1.6.6 2.3-.2-.1-.4-.3-.7-.5-.1.4-.1.6-.2.9 0 .4-.2.5-.5.3.2-.6.4-1.2.6-1.9-.7 0-.9.4-.9.7 0 .4.2.8.3 1.2.2.4.3.8.5 1.2.1.2.1.4.1.7-.1.5.1.8.6.8.1.4.2.8.2 1.2-.1 0-.1 0-.2.1-.2-.1-.3-.2-.6-.4.2.5.4.8.6 1.2-.6-.3-.9-.2-.7.5.2.5.2 1.1.3 1.7-.3-.2-.7-.4-1.1-.6-.4.8-.6 1.6 0 2.5-.1 0-.1.1-.2.1-.6-.5-1.1-1-1.7-1.6.6-.7.6-1.1.2-1.6-.2.1-.3.2-.6.3.8-2.6 1.5-5 .1-7.5-.1.3-.4.6-.3.8 0 .3.1.8.3.9.7.2.4.8.6 1.2.1.2-.1.4-.1.8-.3-.6-.5-1-.8-1.5 0 .2-.1.4 0 .5.2.4.4.7-.1 1.1-.1.1 0 .5 0 .8 0 .4.1.7.2 1.1-.1 0-.1 0-.2.1-.1-.3-.3-.7-.4-1-.1 1.1.1 2.4-1 3.3-.1-.7-.5-.9-1.1-1.1-.2 0-.3-.2-.4-.3-.3-.3-.6-.7-.8-1-.1-.2-.1-.6 0-.8.2-.4.6-.7.7-1.2.1-.4-.1-.8 0-1.3.1.4.1.8.2 1.2h.2c.1-.3.2-.7.2-1 0-.3.1-.7 0-1 0-.2-.3-.4-.4-.5 0 0-.2.2-.4.3-.2.2-.5.4-.7.7-.1.2-.2.4-.4.7.2-.1.3-.1.4-.1.1.4.3.9.2 1.3-.2.4-.6.7-1 1 .2-.4.3-.9.5-1.4-.6.4-1 .6-1.3.8v-2.6c-.4.4-.7.6-.7-.2 0-.3-.2-.6-.7-.5-.5.1-1.1-.1-1.6.3-.2.1-.7-.2-1-.4-.5-.3-1-.7-1.5-1.1v-.1c.7-.6.8-1.2 0-1.8.3.1.5.1.7.1 0-.3.1-.6.1-1l-.3-.3c.9-.2.4-.8.4-1.2 0-.5-.2-1-.2-1.4 0-.6-.4-.9-.6-1.4-.2-.5-.2-1.1-.3-1.7-.2-.9-.1-1.7.7-2.4.7-.6 1.1-1.4 1.8-2.2 0 .2.1.4 0 .6-.4.8-.9 1.6-.8 2.5 0 .1-.2.1-.3.2.8 1.1.2 2.3.2 3.4-.1-.3-.2-.5-.3-.8 0-.1 0-.3-.1-.4-.3-.2-.6-.5-.9-.7-.4 1-.4 1.9.6 2.2zM89.6 66c-.1 0-.2.1-.2.1.4.7.7 1.3 1.1 2 .1-.5.7-1.1-.3-1.3-.1 0-.1-.2-.2-.4-.2-.1-.3-.2-.4-.4zm-4.2-3.2c.4-.5.5-1.1.1-1.5-.1-.1-.2-.1-.3-.1-.1 0-.2.2-.1.3 0 .4.2.8.3 1.3zm.8 3.6c.1 0 .2.1.3.1.2-.4.4-.8.5-1.3-.2-.1-.3-.1-.5-.2-.1.6-.2 1-.3 1.4zm2.9-4.6c.1 0 .2.1.3.1.1-.4.2-.8.3-1.1-.1 0-.2 0-.3-.1-.1.3-.2.7-.3 1.1zM72.7 53.7c-.2.5-.5 1-.7 1.5-.1.2-.1.4 0 .5.2.5.4 1 .7 1.5-.6-.1-1.1-.7-1.1-1.3 0-.4-.3-.7 0-1.1.1-.1-.2-.4-.3-.6-.1-.2-.3-.4-.3-.7l.3.3c0-.1.1-.2.1-.3l.4.4.1-.1c-.2-.3.5-1-.3-1-.1-.7-.3-1.4-.4-2.1v-.3c.5-.6.4-1.2-.1-1.7.1 0 .1-.1.2-.1.2.2.4.5.6.7.6-.7.7-1.4.2-2.1-.1-.2-.1-.7 0-1 .3-1.3.2-2.5-.5-3.7-.3-.6-.5-1.3-.8-1.9-.4-.9-.7-1.9-1.1-2.8-.5-1-1-2.1-1.8-2.9-.7-.7-1.1-1.3-1.2-2.3 0-.7-.8-.5-1.4-.4.1-.2.2-.3.3-.5.4-.7.8-1.3 1.2-2 .9-1.3 1.6-2.7 2.5-4 .1-.2.6-.2.7-.4.4-.4.7-.8 1-1.2.2-.2 1.3-1.4 1.9-1.5.1.9-1.2 2.3-1.1 3.1-.2-.2-.3-.4-.4-.6-.1.3-.2.5-.3.8-.3.9-1 1.4-1.7 1.9-.3.2-.5.7-.7 1.1-.1.2-.3.4-.4.6-.1.2-.3.4-.3.7 0 .2 0 .4.4.5.9.3 1.5 1 1.6 2h-.3c.1.3.2.7.3 1.1.3-.1.6-.3.9-.4.4.4.8.9.4 1.8.3-.2.4-.3.6-.4.2.4.5.8.7 1.1l-.1.1c-.2-.1-.4-.1-.6-.2l-.1.1c.4.3.7.7 1.1 1 .4.4.8.7 1.2 1.1.6.6.1 1.1-.2 1.6l-.3-.3c-.1 0-.1 0-.2.1.3.5.8 1.1.2 1.8.3 0 .5 0 .7-.1 0 .6 0 1.1.1 1.7 0 .3.2.6.2.9-.1.5-.3 1-.5 1.4-.1.2-.4 1.3-.2 1.6.3.7.7 1.3 1 1.9-.2.1-.3.3-.4.4-.3-.4-.7-.8-1.1-1.3-.3.6-.4 1.1-.7 1.5-.2.3-.4.6-.5.9-.2.8.3 1.3.6 2 .1.2.1.4.1.6-.1.4-.2.7-.2 1zm-4.5-20c.3-.5.5-1 .8-1.4.1-.1.1-.3.1-.5-.2 0-.5-.1-.7 0-.5.1-.6 1.5-.2 1.9zm5.3 7.9V40c-.3.5-.8 1.1 0 1.6zM58.7 56.3h-.5c.3-.8.7-1.7.4-2.7.2.1.4.2.7.3-.2-.4-.3-.7-.5-1-.5.2-.9.3-1.4.6-.1-.4-.1-.8-.2-1.2 1-.2 1.4-1.8.8-2.9.7 0 1.1-.2 1.3-1.1.2-.8.2-1.7.4-2.5.1-.6.1-1.2.1-1.8 0-1.1-.3-2.1-.8-2.8-.6.1-1.1.1-1.6.3-.3.1-.5.3-.8.4-.3 0-.5-.2-.7-.1-.6.2-1.1.4-1.6.7-.4.2-.6.1-.9-.1-.2-.2-.3-.5-.5-.8.2 0 .5-.2.6-.1.5.4.8 0 1-.3.4-.5.4-.5.9-.3.3-.2.5-.3.7-.4 1.1-.5 2.3-.8 3.3-1.4.7-.4 1.1-1 1.7-1.6.4-.5.9-1 1.2-1.6.5-.7.9-1.4 1.4-2.2.7.4.7.5.1.8.1.1.1.2.2.3l.3.3c-1.2.7-.5 2-.7 2.9-.3 0-.6-.1-.7 0-.1 0-.1.4-.1.6v.7c.4-.3.9-.6 1.4-1 0 .5.6 1-.4 1.3-.2 0-.2.6-.2.9h.4c0 .1-.1.3-.1.3-1 .1-.6.9-.8 1.4-.1.2-.1.4-.3.6.1-.4.1-.9.2-1.3-.2.2-.7.1-.5.7.1.3-.3.7-.4 1.1-.1.5-.2 1-.4 1.4-.1.5-.3 1-.5 1.4-.5.7-.5 1.5-.4 2.2.2.9.6 1.7.9 2.6-.3.3-.5.2-.5-.2 0-.3 0-.5-.1-.7l-.9-1.2c-.4.5-.2 1.1 0 1.5.1.2.4.2.8.3.2.5.6 1 .9 1.6h.2v-1.1h.2c.2.8.3 1.5.4 2.1-.4.5-.6.9-.9 1.3-.1-.1-.3-.2-.4-.3 0 .1-.1.1-.1.2.3.2.6.4.9.7-.5-.1-1.1 0-1.1-.8 0-.3-.6-.6-.9-.9-.2.3-.4.5-.5.7-.2.5-.3 1-.5 1.6-.4.2-.4.4-.5.6zm2.4-2.5c.5-.5.3-1.2-.5-1.5-.4-.2-.6-.3-.5-.8 0-.6-.5-.6-.9-.7h-.3l-.6 1.2c-.2.4-.1.6.4.8.6.2 1.1.5 1.7.8 0-.1.1-.2.2-.4.2.1.4.3.5.6z" class="st1"></path><path d="M56.4 41.9s.1 0 0 0c.1.2.1.4.1.6.1 0 .3-.1.6-.2.1.7.1 1.3.1 1.8h-.1c0-.2-.1-.5-.1-.7 0-.3-.1-.5-.1-.8-.7.4-.8.9-.7 1.5 0 .1.2.1.6.2-.1 1.1-.3 2.4-.4 3.6-.1 0-.1-.1-.2-.1-.2.1-.4.3-.6.5.1-.3.2-.7.3-1.1.1.2.2.3.3.4-.2-1 .5-2.1-.2-3.1h-.2c-.2.8-.3 1.5-.5 2.3-.1 0-.1 0-.4-1.2-.8.8-.2 1.8-.2 2.6h-.2c-.1-.2-.2-.5-.4-.9-.1.4-.3.6-.3.9-.1.7-.1 1.4-.1 2.1 0 .1.1.3.2.4.4.4.4.8 0 1.2l.4.4c-.2 0-.3.1-.3.1-.5-.2-.6.2-.5.5.2.8.4 1.7.6 2.5.1.2.3.4.5.7.4-.8.6-1.4.9-2.1h.2c.1.4.1.7.2 1.1l-.2.2c-.1-.1-.2-.2-.3-.5-.1.5-.2 1-.3 1.6.6.1.7.5.3 1.1-.2 0-.3-.1-.5-.1 0 .2-.1.4-.1.6 1 .4.2 1.1.3 1.6-.1 0-.1.1-.2.1l-2.1-2.1c.8 0 .8-.1.4-1.3-.1.2-.2.4-.4.7-.2-.8-.5-1.6-.6-2.4-.1-.4.2-.9.2-1.3 0-.2-.1-.3-.1-.5-.1.1-.3.2-.4.3-.3.7-.6 1.5-1.2 2-.2.1-.3.4-.3.7-.1.3-.2.6-.2.9-.1.4-.2.9-.3 1.3h.2l.2-.2c0 .3 0 .6-.1.9-.6-.2-1.1-.4-1-1 0-.7-.3-.7-1-.5.1-.5.3-1 .2-1.3-.3-.7 1-1.3-.1-2.1.4 0 .6-.1.6-.1.1.1.1.3.1.4 0 .2.1.5.1.7 0 .3-.1.5-.1.9.3.3.5.3.7-.2.1-.3.3-.5.4-.8.2-.5.5-1 .7-1.7-.3.2-.5.4-.7.5-.1-.2-.1-.5-.2-.7-.1-.2-.2-.3-.3-.4.2.1.4.3.8.5-.2-.9-.3-1.6-.4-2.4h.2c.1.4.1.9.2 1.3h.1c.2-.9.4-1.9.7-2.8.1-.3.2-.5.4-.8.6-.9 1.2-1.9.8-3.1 0 0 0-.1.1-.3.1.3.2.5.3.7.4-.1.9-.2 1.2-.5.3-.3.4-.8.6-1.2 1.2.1.8-1.1 1.1-1.7l.1.1c.3.1.4-.1.6-.3zM41.5 46.8c-.1.1-.1.3-.1.3.5.4 1 .7 1.5 1 .3-.8.5-1.5.8-2.2h.8c0 .1.4.4-.2.5 0 0-.1.3 0 .5s.2.4.2.6c-.2 0-.5-.1-.7-.1.1.2.2.5.3.7.1.2.3.4.4.6.2.9.1 1.7-.2 2.5 0 .1-.1.1-.3.2 0-.3-.1-.5-.1-.8h-.5c-.1.4-.1.8-.2 1.1h-.3c-.2-1.1-.3-2.2-.5-3.4h-.2c-.1.2-.1.5-.2.7-.1.2-.1.5-.2.7h-.2c.1.3.3.7.4 1-.3.1-.5.2-.6.3-1-.6-.5-1.7-.6-2.5h-.2c0 .5-.1 1-.1 1.6h-.2c-.1-.5-.2-1.1-.2-1.6h-.2c-.1.4-.2.7-.4 1.2-.2-.7-.4-1.2-.6-1.8-1.5.9-2 2-1.1 3.6h.3c-.2.3-.4.6-.6.8-.1.2-.3.3-.5.4 0-.2.1-.4.1-.5.5-.3.2-.5-.1-.8-.1.2-.3.3-.4.5 0-.1-.1-.2-.1-.5-.2.5-.3.8-.4 1-.3.5-.5 1.1-.8 1.6 0 .1-.1.2 0 .3.3.8.2 1-.6 1.5-.3-.5-.2-1.1 0-1.6s.5-1.1.7-1.6c.1-.1.1-.3.1-.4 0-.7.2-1.3.7-1.8.3-.3.5-.9.7-1.3.4-.8.9-1.6 1.7-2.2.1-.1.2-.2.5-.4-.3-.1-.7 0-1-.1.3-.1.6-.3.8-.4.3-.1.6-.1 1-.2 0 0 .2 0 .3.1 0 .4 0 .9-.2 1.2-.4.4-.2.6.1 1 .1-.2.2-.4.3-.5.1.2.1.4.2.6.1 0 .2 0 .3-.1-.1-.5-.2-1-.3-1.4-.1-.3-.3-.5-.4-.7.3-.2.5-.1.7.3.2.1.4.3.6.5zM106.1 72.7c-.4 0-.5.2-.4.6.2.5.4 1.1.6 1.6.1.2.1.5.2.9-.2-.3-.4-.4-.6-.7-.1.2-.1.3-.2.4-.6-.2-.9-.5-.8-1.2 0-.3-.2-.7-.3-1.1h-.2c0 .2 0 .4-.1.7 0 .1-.1.3-.2.3s-.3 0-.3-.1l-.3-.9c.1.2.3.4.4.6h.1c-.1-.2-.1-.3-.2-.5-.2-.4-.3-.7 0-1.2.1-.2 0-.5 0-.8-1.1-.1-1.7-.5-1.6-1.2 0-.4.1-.7.1-1.1 0-.4-.1-.9-.2-1.3.1-.3.2-.6.3-.8.1-.2.2-.5.4-.8.4.3.8.5 1.2.8 0 .1 0 .1-.1.2-.3 0-.5-.1-.9-.1.1.2.2.4.3.4 1 .3 1.5.9 1.6 1.9 0 .1.1.2.2.3.6.8 1.1 1.5.7 2.6 0 .1.2.3.3.5zM109.4 55.6c-.4-.6-.9-1.3-1.3-2 0 .3 0 .6-.1.9h-.1c-.1-.5-.2-1.1-.4-1.6-.1-.3-.3-.5-.4-.7-.3-.8-.6-1.5-.8-2.3 0-.1.2-.2.3-.3l-.4-.4c-.1.2-.2.3-.3.4-.5-.3-1-.5-1.4-.8-.4-.3-.8-.7-.4-1.3.1.3.3.7.4 1.1.4-.6.6-1.1.3-1.7-.2-.3-.1-.8.3-.8.8 0 .9-.7 1.2-1.1.1-.1.1-.3.2-.5.1-.4.2-.7.8-.7.1 0 .3-.2.5-.3 0 .5 0 1-.1 1.5-.5.3-.5-.3-.8-.5.3.8.6 1.5.8 2.1-.3.2-.4.3-.5.4.1.1.3.2.5.4-.1.2-.3.5-.5.6-.2.1-.4-.3-.7-.4 0 .2.1.4.2.6.2.5.5 1 .2 1.7-.1.1-.1.5.3.6.1 0 .2.3.1.4-.3.7.3 1.1.5 1.8.2-.3.3-.4.4-.6.5 1.3.8 2.4 1.2 3.5zM92.1 53.6c-.1-.1-.2-.3-.3-.5h-.1c0 .6.1 1.3.1 2-.9-.6-1.5-1.2-1.4-2.2 0-.3 0-.4-.3-.7-.4-.3-.3-.8.1-1.2.2.7.3 1.5.5 2.2.5-1.2.1-2.8-.7-3.4-.7.8-.5 1.7-.3 2.6-.8-.7-.7-1.7-.8-2.7-.1.1-.2.3-.3.4-.3-1.1-.1-1.6 1.5-2.6.1.7.1 1.5.2 2.2h.2V49h.1c.2.4.4.8.7 1.3.4-.5.7-.9 1.1-1.3.2-.1.5-.1.9-.1-.5.5-.5.5-.6 1.4-.1.5-.2 1.1-.3 1.6-.1.8-.1 1.3-.3 1.7z" class="st1"></path><path d="M107.7 44.9c.3-.1.6-.3.8-.4.3.4.9.8.8 1.2-.1.8.3 1.7-.1 2.5-.1.3.2.9.3 1.3.1.2.2.4.4.7 0-.4 0-.7-.1-1.2 1.1 1.1 0 2.3.5 3.4.3-.2.5-.4.7-.6h.1c-.1.3-.3.5-.4.8-.1.3-.1.7-.1 1.1 0 .2 0 .5-.1.7-.1.4-.1.7.4.9-.2.5.2 1.1-.4 1.4-.2.1-.5-.1-.9-.1v1h-.1c-.1-.7-.2-1.4-.3-2 .1-.6.7-1.3.1-2-.1-.1 0-.3.1-.4 0-.3.1-.6.1-.9v-.4c.1-.5 0-1.1-.1-1.6-.2-.5-1-.5-1-1.2 0 0-.1 0-.1-.1-.3-.2-.5-.5-.8-.7l.1-.1c.6.5.9.4.9-.3 0-.8.2-1.7-.6-2.4.1-.2-.1-.4-.2-.6zM46.2 47.4c.1-.3.1-.7.2-1.1-.2.1-.3.1-.5.2-.1-.2-.1-.4-.2-.5.6-.1 1-.2 1.5-.3.4 0 .7.1.6.6-.1.9 0 2-.3 2.8-.2.5-.2.9-.4 1.4 0 .1-.4.1-.6.2 0-.1-.1-.1-.1-.2-.2.3-.4.5-.6.8 0-.1-.1-.1-.1-.1-.9-.8-.3-1.5 0-2.3.4-.4.4-.9.5-1.5zM94.9 41.9c-.1.4-.2.7-.3 1.1.3-.2.5-.4.7-.5.1.4.1.7.2 1.1 0 .2 0 .3-.1.5-.2.8-.8 1.5-.5 2.4 0 .1 0 .2-.1.2-.2.5-.3.9.1 1.4.1.1.1.3.1.4-1.3-.6-1.6-1.3-1.2-2.6.3-.8.1-1-.9-1.2 0 .3 0 .6.1.9h-.1l-.3-.6c-.3-.6.3-.9.5-1.3.2-.3.6-.5.9-.8.1-.1.2-.4.2-.5.1-.2.2-.4.3-.7.2.1.3.1.4.2zm-1.5 2.7c.4.1.6.1.9.2v-1.5c-.4.4-.6.8-.9 1.3zM52.4 42.5c0 .5-.3.7-.9.8h-.3c-.1.6-.5.6-1 .6-.7 0-1.4.2-2.1.3-.1 0-.2.1-.2.1-.9.1-1.7.1-2.6.2.1-.4.2-.8.3-1.1 0-.1.9-.6 1-.6.5.1.4-.1.8.7 0 .1.4 0 .7.1 0-.2 0-.4-.1-.7.2 0 .4.1.6.1.6 0 1.1.1 1.6-.3.4-.2 1-.2 1.5-.1.2 0 .4.1.7-.1 0 .1 0 0 0 0zM96.3 70.5c-.9.3-1.2-.3-1.8-.8-.1.8-.1 1.4-.2 2.3-.4-.9-1.1-1.5-.7-2.5.1-.2-.5-.7-.7-1-.1-.2-.2-.4-.3-.5l.2-.2c.4.3.9.5 1.3.8.7-1 .3-1.9-.2-2.9-.2-.4-.1-1 0-1.4.5.9.9 1.9 1.4 2.8-.1 0-.3-.1-.4-.1-.5 1.4.6 2.3 1.4 3.5zM63.5 55c.3.3.5.6.8.9.3.4.5.3.8-.1.3-.5.6-.9 1-1.4-.3 1.6-.6 3.2-.8 4.8h.2c.1-.2.1-.4.2-.6-.1.9.4 1.7-.1 2.6-.2-1-.8-1.3-1.6-1.1.1-.7.1-1.4.2-2.4-.3.3-.4.4-.5.6v-.2c.3-.4.6-.7.8-1.1.2-.3.2-.5-.1-.8-.5-.3-.7-.8-.9-1.2-.1 0 0 0 0 0zM109.6 64.7l-.3-1.5h-.2c0 .3.1.7.1 1.1-.2 0-.3-.1-.5-.1v1.1c-.5-1.1-1.3-2-.9-3.3 0-.1 0-.2.1-.3.4-.4.7-.8.7-1.4 0-.4.5-.4.8-.1.1.1.4.2.6.2-.2.2-.5.4-.8.7.3.7.7 1.4.9 2.1.1.5-.1 1-.1 1.5h-.4zM44.5 58.6c-.3-.6-.5-.9-.8-1.3-.2.3-.4.5-.6.8 0-.5-.1-.9-.1-1.3 0-.1.1-.3.1-.3.6-.1.5-.6.6-.9.2-.7.2-1.5.4-2.3.1-.5.4-1 .6-1.6h.4c.1.4.1.7.2 1.1.8-.2.1-.6.2-1 .3.4.7.8 1 1.2h-.9c0 .4 0 .8.1 1.2l-.1.1c-.2-.3-.3-.6-.5-1 0 0-.2 0-.2.1-.3.7-.6 1.3-.8 2-.1.1 0 .3 0 .5.2.6.5 1.3.7 1.9.1.2-.1.5-.3.8zM117 59.5c.1.6.2 1.1.3 1.7 0 0 .3 0 .5-.1-.1.3-.1.6-.2.9h.2c.1-.2.2-.5.3-.7.2.2.3.3.4.5-1 1.1-.7 2.4-.6 3.7-.5-.6-1.1-1.1-1.6-1.7v-1.1c.1-.1.3-.2.4-.4.3-.7.5-1.4.1-2.2-.1-.1 0-.3 0-.5 0 .1.1 0 .2-.1zM68.2 41.3h.4l.1.1c.2.7.4 1.3.6 2v.3c-.1.6-.3 1.3-.4 2-.2 0-.5-.1-.8-.1-.3-.8-.5-1.6-.7-2.2.3-.7.5-1.4.8-2.1zM84.4 78.2c.8 0 1.7.1 2.5 0 .7-.1 1.4-.4 2.2-.6 0 .1.1.3.2.5.1-.1.3-.1.5-.2l-.4-.4c.8.1 1.4.7 2.1.2.2.2.3.4.5.6-.8.2-1.6.3-2.4.3-1.4-.1-2.9.1-4.3.2-.4-.1-.8 0-.9-.6zM109 75c0-.2.1-.6-.4-.3-.1 0-.4-.3-.5-.5-.2-.2-.2-.5-.6-.6-.3 0-.4-.5-.6-.8l.1-.1c.1.2.3.3.5.6.1-1.3.2-2.5-.4-3.7.3 0 .6-.1 1-.2-.2 1-.2 2 .5 2.8.1.1.1.5 0 .7-.1.7.5 1.1.6 1.7 0 .1-.1.3-.1.4 0 .1 0 .1-.1 0zM76.6 61.3c-.1.4-.3.5-.6.4-.2 0-.4.1-.5.2-.8.5-1.8.2-2.2-.5.2-.1.4-.1.8-.2.1.1.2.2.5.4.3-.3.3-.8 1-.8.3 0 .5-.6.9-1 0 .6.1 1 .1 1.5zM112.9 70.5c.2 0 .6 0 .7.2.3.3.6.8.6 1.1-.2.9.6 1.5.8 2.2.1.2.2.3.3.5-.1 0-.1.1-.2.1-.4-.6-.8-1.2-1.3-1.9-.1.2-.2.3-.2.5h-.2c0-.6-.1-1.2-.2-1.8-.1.1-.2.2-.4.5.1-.6.1-1 .1-1.4zM69.8 54.1c-.3-.3-.6-.6-1-.9-.1 0-.1.1-.2.1.1.2.1.5.2.7-.2 0-.3-.1-.5-.1.1.2.2.4.2.5-.5 0-.7-.4-.4-.8.2-.4.2-.6-.2-.9-.3-.3-.4-.7-.6-1.2.4.2.8.5 1.2.7.3.1.6.1.9.1-.6.7.5 1 .6 1.7 0 .1-.1.1-.2.1zM68 58c0-.2 0-.4.1-.7.1.7.2 1.3.4 1.9-1-.6-.7-1.8-1.3-2.6-.1.2-.1.3-.1.4h-.2c-.1-.7-.1-1.5-.2-2.2h.3c.1.5.2 1 .2 1.5.2 0 .7 0 .7.1.1.3.1.7.1 1 0 .3-.1.5-.1.8 0-.2.1-.2.1-.2zM103.2 48.4c-.1-.5-.1-.9-.2-1.4.2.1.3.1.6.2-.1-.2-.1-.2-.1-.3-.2-.5-.5-1-.5-1.5 0-.2.4-.4.7-.6.1 0 .1 0 .2.1 0 .4-.1.7-.1 1.1.1.1.5.2.5.3.1.3-.1.6-.2.8-.2.4-.4.8-.6 1.3h-.3zM94.5 74.9c0-.3-.1-.7-.1-1h-.1c-.1.2-.1.3-.2.6-.9-.4-1.1-1.3-1.8-2 .7.2 1.2.6 1.7 0 .4.8.8 1.5.8 2.4h-.3z" class="st1"></path><path d="M109 75c0 .1.1.1.1.2.5.5.5-.2.5-.2.8.4 1.6.9 2.3 1.3 0 .1 0 .1-.1.2-.3 0-.5-.1-.8-.1-.1 0-.2-.2-.3-.2-.4-.1-.7-.3-1.1-.4 0 .3 0 .6-.1.9 0 .1 0 .2-.1.3-.1 0-.1.1-.2.1-.3-.4-.5-.8-.8-1.1.1 0 .3.1.6.1-.2-.4-.3-.7-.4-1 .2 0 .3 0 .4-.1zM105.8 58.7c-.3-.3-.5-.6-.8-.9-.1 0-.1 0-.2.1.1.6.1 1.2.2 1.8 0 .2-.2.3-.3.5-.1 0-.2-.1-.3-.1v-4c.5.9.9 1.7 1.4 2.6zM67.3 40.5c.3-.8.3-1.5-.1-2.2-.1-.1.1-.3.2-.6.1.4.2.6.3.8h.2v-1.3c.4.8.7 1.4 1.1 2.1-.6.3-1.1.8-1.7 1.2zM59.9 72.9c-.2-.3-.3-.5-.5-.8-.2-.4-.3-.9-1-1-.3 0-.6-.3-.9-.5.6-.4 1.4-.1 2.2 1v-.7c.7.1.8.2.2 2zM111.4 80.1c-.6-.2-1.3-.4-1.9-.6.6-.6 1.3-.4 2-.2s1 .1 1.4-.4c.5.1 1 .3 1.4.4v.1c-.8.1-1.7.2-2.5.3-.3-.1-.6 0-.4.4zM77.7 76.7c-.8-1.3-.7-1-.5-1.7.9.4 1.8.7 2.3 1.5-.6 0-1.2.1-1.8.2 0-.1 0 0 0 0zM105.6 52c-.3.3-.6.5-.9.8v-1.3h-.1c-.1.2-.2.4-.4.6 0 0-.1 0-.1-.1.3-.8.7-1.6 1-2.4.1 0 .2 0 .3.1 0 .7-.1 1.4-.1 2.1.1-.1.2-.1.4-.2-.1.2-.1.3-.1.4zM67.5 59.9c0 .2-.1.4-.1.6 0 .2.1.5 0 .6-.2.1-.5.1-.8.2.3-.9.6-1.7.9-2.6.4.7.8 1.5 1.1 2.2-.2.1-.4.2-.7.4-.1-.5-.2-.9-.3-1.4h-.1zM101.7 76.4c.5-.3 1.1-.7 1.5-1-.1.6-.2 1.3-.3 2.1-.2-.2-.3-.3-.4-.5-.1-.2-.1-.4-.2-.6-.3.1-.5.3-.8.4-.1 0-.1.1-.2.1-.9-.8-.2-1.7-.1-2.6.4.7-.5 1.5.5 2.1zM92.5 63.8c.4-.3.3-.7.1-1-.3-.5-.3-.7.2-.7l.9 1.8-.1.1c-.1-.1-.3-.2-.6-.4.1.4.2.6.3.8-.8 0-1.4-.5-1.9-1 .1-.1.1-.2.2-.2.2.1.6.4.9.6zM51.2 47.7c-.1-.7-1-.9-.9-1.8.1-.4 0-.7.4-.6.3.1.6.4.6.7.1.5 0 1.1 0 1.7 0-.1-.1 0-.1 0zM58.5 60.4c.1-.1.1-.2.2-.3v1.1c-.7-.1-.7-.5-.7-1 0-.3.3-.7-.2-.8v-.1c.1-.6.1-1.3.2-1.9.3.5.7.9.3 1.6-.2.3 0 .9 0 1.4h.2zM109.8 71.3c.1 0 .3.1.3.1.1.6.3 1.3.4 1.9 0 .2-.2.4-.5.5 0-.1.1-.3.1-.4 0-.1 0-.3-.1-.4 0 0-.3.1-.4 0-.2-.1-.4-.2-.5-.4-.2-.4-.2-.9-.4-1.5.2.1.3.1.4.2.2.4.4.8.6 1.3.1 0 .2-.1.3-.1-.1-.4-.2-.8-.2-1.2zM115.8 71.3c.6.4.8 1 .5 1.8-.1.4-.3.7.1 1l.1.1c.1.6.2 1.3.4 1.9-.3-.2-.6-.4-.6-1 0-1.3-.3-2.5-.5-3.8zM117.8 77.8l.8-.4c-.5-.6-1-1.1-1.5-1.8.7-.2.9.1 1.1.6.1.2.2.4.4.6.1.2.3.5.3.7 0 .3-.2.6-.3.8-.2-.1-.5-.3-.8-.5zM108.3 69.4c-.9-1-1.1-1.4-1.1-2.8.4.5.9.8 1.1 1.2.1.5 0 1 0 1.6zM125.2 77.6c.2.5.4.9.5 1.4.1.1.2.4.1.5-.1.1-.4.3-.5.3-.1 0-.3-.2-.4-.4-.2-.4-.4-.9-.1-1.3.1-.3.3-.4.4-.5zM133.8 76.7c.1.7.3 1.5.4 2.3-.9.1-1 0-.9-.7 0-.5.1-1 .1-1.6h.4z" class="st1"></path><path d="M105.6 52h.3c0 .2-.1.3-.1.5-.2.8-.7 1.5-.1 2.5-1.2-.7-1.2-1.4-.4-2.3.1-.2.2-.4.3-.7zM100.5 65c.3.3.7.6.9 1 .3.6.5 1.2.8 1.8-.4-.6-.8-1.2-1.3-1.8h-.1c.1.2.1.5.2.7l-.1.1c-.1-.2-.3-.4-.4-.7-.1-.2-.1-.5-.2-.8.1 0 .2.1.4.2l.1-.1c-.1-.1-.2-.2-.3-.4zM111.6 77.8c-.5-.4-1-.3-1.5 0-.1.1 0 .5 0 .8-.2-.1-.4-.3-.6-.5-.1-.1-.2-.3-.1-.4 0-.1.3-.2.4-.2.5.1.8-.1 1-.6.2.3.5.6.8.9zM112.9 70.5c-.5-.2-1.3-.2-1.5-.6-.3-.4-.6-.7-1-.9-.1-.1 0-.5 0-.6l1.3 1.3c.5.2.9.5 1.2.8zM63.3 72.7c.8-.1 1.3.3 1.3 1 0 .1-.1.3-.2.3s-.3 0-.4-.1c-.2-.3-.4-.7-.7-1.2zM100.5 65c-.6-.6-1.2-1.2-1.8-1.9-.1-.1 0-.5-.1-.8.6.7 1.1 1.2 1.6 1.9.2.2.2.5.3.8zM70.5 57c.2-.3.5-.7.7-1 .1 0 .2.1.3.1-.1.7-.3 1.4-.4 2.2-.3-.5-.4-.8-.6-1.3zM49.6 52.7c-.1.2-.2.4-.4.5-.1.1-.2.1-.3 0-.1 0-.2-.2-.2-.3-.1-.2-.1-.4-.1-.8h.8v-.5c.5.3.3.7.2 1.1zM58.7 56.3c.1.2.1.3.2.5 0 .1.1.1.1.2.1-.1.2-.2.4-.3 0 .6-.1 1.2-.1 1.9-.1-.1-.2-.3-.2-.4-.1-.3-.1-.7-.3-.9-.6-.3-.5-.6-.1-1zM123.7 70.4c-.1.5-.1.9.4 1.1.1.1.2.4.2.6.1.3.1.5.1.8-.7-.4-1.2-2-.7-2.5zM56.2 52.4c-.8-.5-.9-.9-.9-1.9.8.4.8 1.1.9 1.9zM42.9 45.3c.8-.3 1.5-.6 2.3-.9.1.5.1.5-1 .6.1.1.1.2.2.4-.5 0-1 .1-1.5.1v-.2zM71.9 59.2c.3.3.2.3 0 .6-.3.3-.3.8-.4 1.3 0 .2 0 .4.1.5-.3-.1-.6-.2-.8-.3.3-.7.7-1.4 1.1-2.1zM117.7 66.1c.2 0 .4-.1.6-.1 0 .1 0 .2-.1.4.7.1.8.5.4 1.2-.1-.3-.2-.6-.3-1h-.2l-.3.6h-.1c-.1-.4 0-.8 0-1.1zM117 59.5l-.3.3c-.4-.5-.9-.9-1.3-1.4.3-.3.5-.4.7-.6.1.7 0 1.4.9 1.7zM103.9 65.5c-.3-.2-.6-.3-.9-.5-.1-.1-.2-.2-.3-.4 0-.1.1-.3.2-.3s.4 0 .5.1c.2.4 1 .5.5 1.1zM47.3 44.6c.8-.1 1.6-.2 2.5-.3-.4.5-1.9.7-2.5.5v-.2zM89.6 40.4c.4-.4.7-.8 1.2-1.3-.1.5 0 .9-.2 1.3-.2.5-.6.3-1 0zM108.1 74.8c-.2-.1-.4-.2-.6-.2 0 .1-.1.1-.1.2.4.4.8.8 1.2 1.3-.9-.1-1.1-1-1.7-1.5-.1-.1-.2-.3-.3-.3h.9c.1 0 .4.3.6.5zM84.4 78.2c-.4.1-.8.1-1.1.2-.5.2-.8-.1-.8-.6.7-.1 1.3-.1 1.9.4zM128.4 72.3c.1.1.2.3.4.5-.2.1-.4.1-.5.2 0 .3.1.6.1.9-.9-.8-.9-1 0-1.6zM98.3 74.4c.2.2.4.4.2.7-.2.3-.2.7-.3 1.3-.1-.4-.8-.6-.1-1 0 0 0-.2-.1-.2-.2-.4-.1-.6.3-.8zM110.2 71l-.4-.2c-.2-.6-.4-1-.6-1.5.3.3 1.1 0 .7.9.1.2.7.3.3.8zM42.4 52.4c-.1.7-.2 1.3-.2 1.9-.7-.4-.7-1 .2-1.9zM52.7 44.9c.1-.4.1-.7.2-1.1.5.3.9.4 1.3.6-.5.2-.9.3-1.5.5zM63.8 46.7c.1.5.1 1 .2 1.6-.1 0-.4 0-.5-.1-.1-.2-.1-.5-.1-.7 0-.3.1-.6.2-.9 0 .1.1.1.2.1z" class="st1"></path><path d="M116.1 57.8c0-.5.3-.8.7-.7.2 0 .4.5.6.8-.1 0-.1.1-.2.1-.1-.2-.2-.4-.4-.6-.1.3-.2.5-.2.8-.3-.2-.4-.3-.5-.4zM87 71.1c-.2.1-.4.2-.5.2-1.1-.3-.8-1.1-.5-1.8 0 .3-.1.6 0 .8 0 .2.2.4.3.5.1.1.3-.1.6-.2 0 .2.1.3.1.5zM116.2 71.1c-.2-.3-.4-.7-.8-1.2.5 0 .9 0 .9.1.1.3.1.7.1 1-.1 0-.2.1-.2.1zM42.3 59.4c.5-.4.9-.6 1.2-.9l.1.1c-.2.4-.4.8-.7 1.1 0 .1-.3-.1-.6-.3zM51.7 55.9c.7.7.7.7 0 1.8v-1.8zM56.9 59.4v.4c-.3 0-.5 0-.7.1-.2-.4-.4-.7-.6-1.1.1 0 .3-.1.4-.1.2.3.3.6.4.9.1 0 .3-.1.5-.2zM49.4 51.6h-.5v-1.5c0-.1.2-.2.3-.2.1.5.1 1.1.2 1.7zM61.3 48.8c.3.7.7 1.3 1.5 1.4-.6.2-.9-.2-1.3-.4s-.5-.5-.2-1zM37.3 52.1c0 .2-.1.4-.1.5.1.5.1 1 .2 1.6h-.2c.1-.6-.7-1.1-.2-1.8l.3-.3zM98.3 74.4c0-1-.1-2 .6-2.7-.1.8-.3 1.6-.4 2.4-.1.2-.2.3-.2.3zM107.9 59.8c-.1-.6-.3-1.3-.4-1.9.1 0 .1 0 .2-.1.2.6.4 1.3.6 1.9-.1 0-.3.1-.4.1zM46.1 73.8c-.6-.1-1.2-.1-1.8-.2.6-.5 1.2-.3 1.8 0v.2zM67.3 40.5c-.2.7-.5 1.5-.8 2.3-.3-.5.3-1.9.8-2.3zM86.9 45.6l-.3 1.5c-.5-.2-.5-.2.3-1.5zM91.7 65.8c0-.3-.1-.6-.1-.9.5.5.9 1 1.4 1.4-.1 0-.3-.1-.5-.2-.3-.1-.6-.2-.8-.3zM44.9 79.3c.5-.5 1-.5 1.3 0h-1.3zM100.9 68.5c-.6-.4-.8-.8-.5-1.4.1.3.1.6.2.9.1 0 .2-.1.4-.2 0 .3 0 .4-.1.7zM88.5 53.4c.2.2.4.4.6.5-.2.2-.4.3-.5.4-.2.1-.3.3-.6.6.2-.6.3-1 .5-1.5zM101.1 64.7c-.5-.6-1-1.2-1.6-1.9.7.2 1.8 1.6 1.6 1.9zM120 71.3c-1-.9-1.1-.9-.6-1.5l.6 1.5zM103.8 64.1c-.3-.4-.6-.9-.9-1.3.4.4 1.1.3 1.1 1.1 0 .1-.1.1-.2.2zM64.1 42.4c.1.5.1.9.2 1.4-.8-.2-.8-.6-.2-1.4zM114.6 59.9c.1-.5.2-1.1.3-1.6.1 0 .2 0 .3.1-.1.5-.2 1.1-.3 1.6-.1 0-.2-.1-.3-.1zM77.7 76.6c-.1.4-.4.9.4 1.1-.2.2-.3.4-.5.5-.6-.7-.5-1 .1-1.6 0 .1 0 0 0 0zM102.3 71.7c-.8.2-.8.3-.4 1.3-.2-.2-.5-.4-.5-.6.1-.4.3-.7.5-1 .1.2.2.2.4.3zM100 75.5c.2.5.3.8.4 1.1 0 0 0 .1-.1.1l-.8-.8c.2-.1.4-.3.5-.4zM41.5 46.8l-.3-.6.2-.2c.1.2.2.4.4.6 0 0 .1 0 .1-.1v-.6c.2.4.3.7.4.9 0 .1-.1.1-.1.2-.2 0-.5-.1-.7-.2zM80.5 43.6v1.5h-.2c0-.5-.1-1-.1-1.5h.3zM69.8 54.1c-.1.7-.2 1.5.2 2.2-.6-.7-.7-1.3-.2-2.2zM56.7 47.8c.1.7.2 1.2.2 1.7-.4-.1-.5-.2-.2-1.7zM40 54.2l.3-1.8h.2c-.1.6-.1 1.2-.2 1.8H40zM98.9 42.1c-.1.3-.2.5-.3.9-.2-.4-.4-.7-.7-1.1.4.1.6.2 1 .2zM114.3 76.4c.5-.4.5-.4 1.1.9-.4-.3-.7-.6-1.1-.9zM55.9 58.3c0-.3.1-.6.2-1 .3.4.4.7.7 1.1-.5-.1-.7-.1-.9-.1zM122 75.9c-.6-.8-.6-1.4-.3-1.7.1.5.2 1 .3 1.7zM105.3 67.2c-.3-.4-.6-.7-.9-1.1.3.3 1.1.2 1.1.9l-.2.2zM91.9 72.9l-.6.9s-.2 0-.3-.1v-.3c.2-.2.5-.4.8-.6 0 0 0 .1.1.1zM65.6 53.4c-.1.4-.1.8-.2 1.3h-.2c.1-.5-.3-1 .4-1.3zM39.4 54.1v-1.4c.6.6.2 1 .2 1.4h-.2zM55.5 52.3c0 .5.9.7.3 1.3-.2-.4-.3-.8-.5-1.2.1-.1.1-.1.2-.1zM47.7 52.2c0 .3.1.7.1 1.1-.2-.1-.5-.1-.5-.2 0-.3.1-.6.1-.9h.3zM69.9 51.4c-.1-.2-.1-.3-.2-.5.2-.1.4-.3.6-.4.3.5.3.5-.4.9zM92.7 58.1c.4.3.8.7 1.2 1l-.1.1c-.4-.3-.9-.6-1.3-.9.1 0 .2-.1.2-.2zM77.1 46.6c-.1-.1-.3-.2-.6-.4.1-.3.2-.6.4-1 0 .5.1.9.2 1.4zM116.4 65.8c-.1.6-.2.9-.2 1.4-.6-.6-.2-.9.2-1.4zM106.1 72.7c.3.3.6.7.9 1-.6 0-1-.4-.9-1zM51 78l-.6-.6v-.2c.2 0 .5.1.7.1 0 .3-.1.5-.1.7zM64 38.4c-.1-.4-.2-.8-.3-1.3h.2c.2.4.5.8.1 1.3zM116 75.7c.2.3.3.6.5.8-.1 0-.1.1-.2.1-.2-.3-.4-.5-.6-.8.1 0 .2 0 .3-.1zM104.3 66.9c-.4-.4-.8-.7-1.1-1 .5.1 1.1.1 1.1 1zM48.3 50.4c-.4-.6.2-.9.2-1.3.1 0 .1 0 .2.1-.1.3-.3.7-.4 1.2zM121 72.9l-.3 1.2h-.1c0-.4.1-.8.1-1.2h.3zM80.9 74.7c-.4.4-.6.3-.8-.4.3.1.5.2.8.4zM96.5 59.7l-1.2-.9c0-.1.1-.1.1-.2.4.3.8.6 1.2 1 0 0 0 .1-.1.1zM103.7 76.1c.1-.6.3-1 .4-1.4.3.2.2.8-.4 1.4zM75.4 40.9c.1.6.2 1.1.2 1.7h-.1c-.1-.6-.2-1.1-.3-1.7.1.1.1 0 .2 0zM98.3 47c-.2.3-.4.6-.5.9-.1 0-.2-.1-.2-.1.2-.3.4-.6.5-.9 0 0 .1 0 .2.1zM46.2 47.4c-.8 0-.9-.1-.8-1 .3.4.6.7.8 1zM106.3 61.2c0 .4-.1.7-.1 1.1h-.2v-1.1h.3zM63.9 46.3h-.7c0-.3 0-.5.1-.8.2.3.3.5.6.8zM116.2 64c-.4.3-.8.7-1.5.4.5-.2 1-.3 1.5-.4zM79.5 43v-1.3h.2c-.1.5-.1.9-.2 1.3zM76.5 48.9l-.3-1.2h.2c.1.4.2.8.2 1.2h-.1zM72.7 53.7c.6.3.9.7.9 1.4-.3-.4-.6-.9-.9-1.4zM56.4 56.9v-1.5c.5.5.2 1 0 1.5zM117.8 61.2c.2-.4.3-.7.6-1.2 0 .5 0 .8.1 1.1-.3 0-.5.1-.7.1zM96.7 61.2c.2.2.4.5.6.7-.8-.1-.8-.1-.6-.7zM108.6 51.1c-.4-.1-.9-.1-.7-.7.1-.3.1-.7.6-.5.9.3-.1.7.1 1.2zM8.3 72l-1.5-.3c-.1 0-.3-.1-.5 0-.3.1-.6.1-1 .2.4.1.7.2 1 .3h2.3c-.1-.1-.2-.1-.3-.2zM41.2 68.7c-.1.1-.1.3-.2.3-.8.1-.4.6-.3 1 .3-.5.5-1 .8-1.6-.1 0-.1-.1-.2-.1 0 .2-.1.3-.1.4zm3.7-3.9c0-.1-.1-.2-.1-.2-.1 0-.2 0-.3.1-.3.3-.2.8.1 1.2.2-.5.3-.8.3-1.1zM23.5 59.3c.7.3.9-.3 1.4-.7 0 .6.1 1.1.1 1.8.3-.7.9-1.2.6-1.9-.1-.2.4-.5.6-.8.1-.1.2-.3.3-.4-.1 0-.1-.1-.2-.1-.3.2-.7.4-1 .6-.6-.8-.2-1.5.2-2.3.2-.3.1-.7 0-1.1-.4.7-.7 1.5-1.1 2.2.1 0 .3-.1.3-.1.2 1.2-.7 1.9-1.2 2.8zM16.1 64c.3-.2.6-.5.9-.7l.1.1-.6.6c.1.1.2.1.4.2-.2.2-.4.4-.6.7.8-.4 1.8-.5 2.3-1.5 0-.1.1-.2.1-.2 0-.4 0-.8.3-1.2.2-.2-.1-.5-.4-.5-.1 0-.3-.1-.4-.2 0 .2.1.5.1.8-.5.2-1.1.4-1.6.8-.3.2-.5.6-.7.9.1.1.1.2.1.2zM10.7 59.3c-.1.4-.2.9-.3 1.4 0 0-.2 0-.4-.1 0 .2.1.5.1.7H10c0-.1-.1-.3-.1-.5-.1.2-.2.3-.3.4.8.9.5 1.9.5 2.9.4-.4.8-.9 1.3-1.3V62c-.1-.1-.3-.2-.3-.3-.2-.6-.4-1.1-.1-1.7.1-.1 0-.3 0-.4-.2-.1-.2-.2-.3-.3zM37 60.5c-.2 0-.5 0-.6.1-.2.2-.5.6-.5.8.1.7-.4 1.2-.6 1.7-.1.1-.2.3-.2.4l.1.1c.3-.5.7-1 1-1.5.1.1.1.3.2.4h.2c0-.5.1-.9.1-1.4.1.1.1.2.3.4-.1-.4-.1-.7 0-1-.1 0 0 0 0 0zM30.7 54.5c0-.4.1-.7.1-1.1-.1 0-.3.1-.5.1.1-.1.1-.2.1-.2.2-.4.4-.8.4-1.2 0-.1-.3-.3-.5-.5-.1 0-.1 0-.2.1 0 .3.1.6.1.9-.1.1-.4.1-.4.2 0 .2 0 .4.1.7.1.3.3.7.5 1h.3zM38.1 79.2c0-.3.1-.5.1-.8h.1c0 .1.1.3.1.4.7-.3.8-1 1.4-1.6-.5.1-1 .5-1.4 0-.3.6-.6 1.2-.6 1.9.2 0 .3.1.3.1zM28.7 62.6c.2-.3.4-.5.6-.7 0 0 .1 0 .1.1 0 .5-.1 1-.1 1.4 0 .1.2.3.3.4.1 0 .1 0 .2-.1v-3.1c-.4.7-.8 1.3-1.1 2zM8.3 72c.5-.2 1-.3 1.5-.5-.5-.5-1-.3-1.6-.2-.6.1-.8.1-1.1-.3-.4.1-.7.2-1.1.3v.1c.7.1 1.3.2 2 .2.2.1.5.1.3.4zM28.8 57.4c.2.2.4.4.7.6v-1h.1c.1.1.2.3.3.4 0 0 .1 0 .1-.1-.3-.6-.5-1.3-.8-1.9H29c0 .6.1 1.1.1 1.7-.1 0-.2-.1-.3-.2v.5zM15.9 69.1c-.4-.3-.8-.6-1.2-.8.1.5.1 1 .2 1.7.1-.2.3-.3.3-.4.1-.1.1-.3.2-.5l.6.3s.1 0 .1.1c.7-.7.2-1.3 0-2.1-.1.7.6 1.2-.2 1.7zM39.4 61.1c-.1 0-.3.1-.3.1l-.3 1.5c0 .1.2.3.4.4 0-.1-.1-.2-.1-.3 0-.1 0-.2.1-.3 0 0 .2.1.3 0 .1-.1.3-.2.4-.3.1-.3.2-.7.3-1.1-.2.1-.2.1-.3.1-.2.3-.3.7-.5 1-.1 0-.2-.1-.2-.1.1-.3.2-.7.2-1zM34.7 61.2c-.5.3-.6.7-.4 1.4.1.3.2.6-.1.8v.1l-.3 1.5c.3-.2.5-.3.5-.8-.1-1.1.1-2.1.3-3zM40.6 59.7c.7-.8.9-1.1.9-2.2-.3.4-.7.6-.9 1-.1.3 0 .7 0 1.2z" class="st1"></path><path d="M28.8 57.4h-.2c0 .1.1.3.1.4.2.6.6 1.2.1 1.9.9-.5 1-1.1.3-1.8-.1-.1-.2-.3-.3-.5zM32.8 67.6c-.2.3-.5.5-.7.8-.3.4-.4.9-.6 1.4.3-.5.7-.9 1-1.4h.1c0 .2-.1.4-.1.6 0 0 .1 0 .1.1.1-.2.2-.3.3-.5.1-.2.1-.4.1-.6-.1 0-.2.1-.3.2l-.1-.1c.1-.3.2-.4.2-.5zM8.2 70.2c.4-.3.8-.2 1.2 0 .1.1 0 .4 0 .6.1-.1.3-.2.5-.4.1-.1.1-.2.1-.3 0-.1-.2-.2-.3-.2-.4.1-.6-.1-.8-.5-.2.3-.5.6-.7.8zM36.9 60.5c.4-.1 1-.2 1.2-.5.2-.3.5-.5.8-.7.1-.1 0-.4 0-.5l-1 1c-.3.3-.6.5-1 .7.1 0 0 0 0 0zM33.2 57.1c-.2 0-.3-.1-.5-.1v.3c-.6.1-.6.4-.3.9.1-.2.2-.5.3-.8h.2c.1.2.2.3.3.5h.1c0-.3 0-.5-.1-.8zM19.9 63.3l.2.2c.3-.4.7-.7 1-1.1-.2-.2-.4-.3-.6-.5 0 .5.1 1.1-.6 1.4zM23.4 66.3c.3-.2.5-.3.7-.4.1-.1.2-.2.2-.3 0-.1-.1-.2-.2-.2s-.3 0-.4.1c0 .2-.6.3-.3.8zM41.4 48.3c-.3-.3-.6-.6-.9-1 0 .4 0 .7.1 1 .2.3.4.2.8 0zM10.9 67.9c.1-.1.3-.1.4-.2l.1.1c-.3.3-.6.7-1 1 .7-.1.9-.8 1.3-1.1.1-.1.2-.2.2-.3h-.7c.1.1-.1.3-.3.5zM18.6 67.6c-.2.2-.3.3-.1.6.2.2.2.6.3 1 .1-.3.6-.5.1-.8v-.2c.1-.3 0-.5-.3-.6zM39.1 60.9c.2-.1.3-.2.3-.2.2-.4.3-.8.5-1.2-.2.2-.9 0-.5.7-.2.2-.7.3-.3.7z" class="st1"></path><path d="M20.6 61.9c0-.4-.2-.6-.5-.6-.2 0-.3.4-.4.6.1 0 .1.1.2.1.1-.2.2-.3.3-.5.1.2.1.4.2.6l.2-.2zM34.4 61c.2-.3.3-.5.6-.9-.4 0-.7 0-.7.1-.1.2-.1.5-.1.8h.2zM18.6 67.6c0-.8.1-1.5-.5-2.1.1.6.2 1.2.3 1.9.1.1.2.1.2.2zM27 63.5l.3-1.5h-.1c-.2.5-.3 1-.5 1.5.1-.1.2 0 .3 0zM43.5 52.3c.1.4.1.8.2 1.1.4-.1.4-.1-.2-1.1zM32.5 70.3c.5-.3.7-.6.4-1.1-.1.2-.1.5-.2.7-.1 0-.2-.1-.3-.1 0 .2.1.3.1.5zM32.3 67.3c.4-.5.8-1 1.3-1.5-.5.2-1.4 1.3-1.3 1.5zM31.4 61.1c.8-.7.8-.7.5-1.1-.1.4-.3.8-.5 1.1zM30.2 66.8c.2-.3.4-.7.7-1-.3.3-.8.3-.8.9l.1.1zM21.8 63.6c-.1-.4-.2-.8-.3-1.3h-.2c.1.4.2.8.2 1.3h.3zM15.5 65.5c.6.2.6.2.3 1.1.1-.1.4-.3.4-.4-.1-.3-.2-.5-.4-.8-.1-.1-.2 0-.3.1zM17.2 68.4c-.1.4-.2.6-.3.9l.1.1.6-.6c-.1-.2-.2-.3-.4-.4zM34.1 49.6c.1.3.1.4.2.7.2-.3.3-.5.5-.8-.2.1-.4.1-.7.1zM29.1 69.2c.2-.3.4-.6.7-.8-.3.3-.9.2-.8.7 0 .1 0 .1.1.1zM34.2 56.9c.1.4.1.7.2 1.1.5-.5.1-.7-.2-1.1zM12.5 66.3c-.2.3-.5.5-.7.8.4-.1.7-.4.7-.8zM29.8 69c.3-.3.6-.5.9-.8-.4.1-.8.1-.9.8zM14.4 68.9c-.1-.4-.2-.7-.3-1.1-.3.2-.2.6.3 1.1zM34.6 53.4c.1.2.3.5.4.7.1 0 .1-.1.2-.1-.1-.2-.3-.5-.4-.7-.1.1-.2.1-.2.1zM28.3 64.6c0 .3 0 .6.1.9h.1v-.9h-.2zM19.3 64.6c-.1-.3-.3-.6-.4-1 0 .4 0 .6-.1.9.2 0 .3 0 .5.1zM26.5 56.6c.3-.1.7 0 .5-.5-.1-.2-.1-.6-.5-.4-.7.3.1.6 0 .9zM73.5 28.9c.1.6.5 1 .8 1.7.3.6.7.6 1.2 1.1.3.3.5.8.8 1.2.5.6 1.6 1.4 2 2.2.2-.4-.7-1.4-1.1-2-.4-.6-.6-1.6-1.1-2.1-.4-.3-.8-.4-1.2-.8-.7-.6-.9-.9-1.3-1.7-.1.2-.2.5-.1.4zM75.5 27.8c.2.2.5 1.6.9 1.6 0-.3-.2-.5-.3-.7-.1-.4-.1-.7-.2-1-.1 0-.2 0-.4.1zM77.5 30c.1.2.1.3.1.5.1-.1.1-.4 0-.5v.1" class="st1"></path><path d="M156.2 78.8c-2.4-.4-4.8.4-7.2 0-2.3-.3-5-.8-7.4-1-2.5-.2-4.6-.3-7.2-.3-2.7 0-6.9-1-9.6-.9-6 .4-12.3-.7-18.3-1.1-5.7-.4-11.4-1.1-17.1-1.8-8.6-1-17.1-2.6-25.7-3.8-10-1.4-20.2-2-30.2-1.2-3.1.2-6 .1-9-.1-3.1.1-6.1-.2-9.2-.6-.3 0-.5-.1-.8-.1-1.5-.2-3-.4-4.5-.8-1.8-.3-3.6-.6-5.4-.7v14.4h159.7c-2.6-.9-4.7-1.4-8.1-2z" style="fill:#bfab58"></path><path d="M19 68.4c-1.7-.1-3.5-.3-5.2-.6-3-.4-6.2-1.4-9.3-1.6V68l.3.3c2.4-2 3.1-1.9 5.3.7.2.2.5.4.8.4.9.1 1.7.2 2.6.2.7 0 1.4.3 1.9-.5.3-.5 2.3.2 2.6.8.2 0 .5 0 .7.1l-.4-.4c.4-.5.6-.9.7-1.2zM12.6 71.1c-.7.2-1.2.3-1.9.5v1.8c-.5.2-1 .3-1.5.6-.1.1.1.8.3 1 1.5 1.5 3.3 2.3 5.5 2.4-.6-2-.6-2-2-1.4.1-.4.4-.7.7-1.1.2-.2.4-.4.5-.6 0-.1-.2-.4-.4-.4-1.3-.1-1.2-1-1.1-1.9 0-.3-.1-.6-.1-.9zM15 77.4s-.1 0 0 0c-.1 0-.1 0 0 0-.1 0 0 0 0 0zM122.9 80.8h1.9c-.8-.6-1.8-1-2.8-1.5l-.3.3c.2.2.4.4.6.7.2 0 .5.3.6.5zM106.7 80.8c-.1-.1-.2-.3-.2-.4-.7-1.9-1-2-2.3-.9.4.5 1 1 1.1 1.4h1.4zM7.7 75.9c-.2-.1-.6.4-.8.6.2.2.5.6.6.6 1.3-.5 1.8.6 2.6 1.2.2-.2.4-.5.7-.9-1.1-.6-2.1-1.1-3.1-1.5zM61.8 78.1c-.2.1-.6-.2-.8-.4-.8-.6-1.5-1.2-2.3-1.7-.2-.1-.5-.2-.7-.3-.5-.1-1-.1-1.6-.2.1.5.3.9 1.1.6.3-.1.8 0 1 .2.7.6 1.3 1.3 2 1.9.5.4 1 .8 1.6 1 .3.1.8 0 1.4-.1-.6-.4-.7-1.3-1.7-1zM53.5 77.1c.1-.6.2-1 .3-1.3-1.1-.3-1.6 1.5-2.8.4-.3.2-.6.5-.9.8h2c.1.3.3.8.5 1.3h.3v-1.1c1.1.3.5 1.2.8 1.9.2-.5.6-.8.5-1-.2-.5-.6-.8-.7-1zM81.1 77.3c.7.3 1.3.6 2.1.9 0-.1.1-.3.2-.4.9-.2 1.5.9 2.6.5-1.5-.8-2.9-1.5-4.2-2.1-.3.3-.5.7-.7 1.1zM81.1 77.3zM90.3 77.6c0 .1 0 .1 0 0 0 .1 0 0 0 0zM88.6 77.1c-.6-.1-1.2-.3-1.8-.3-.4 0-.7.2-1.3.3.7.7 1.1.7 1.3-.1.1.1.3.1.3.2.1.1.1.2.1.3.1-.1.2-.3.3-.4 1.2 1.3 1.7 1.4 2.7.5-.3 0-.5 0-.8-.1-.2-.1-.5-.3-.8-.4zM26.9 80.8c-.1-.1-.2-.2-.1-.3.3-.4.6-1.1 1-1.1 1.4-.1 2.8 0 4.2.1.8.1 1.5.2 2.3.3.1.1.2.2.3.2 1.6.2 3.3.2 4.8.8h3.7c.2-.4.3-.9.6-1.1.7-.5 1.5-.8 2.3-1.2-.4-.3-.8-.7-1.2-.7-1.3-.3-1.3-.2-1.2-1.5-1.7-.1-3.2-.5-3.5-2.6-.1.1-.2.1-.3.2-.1.6-.1 1.1-.2 1.8h-.8c-.3-.3-.5-.6-.8-.9-.1-.4-.2-.9-.3-1.3-.4.4-.7.9-1.2 1.2-1.3.6-2.7 1-4 1.5l.2.2c-.2.5-.5 1-.5 1.5-.1.9-.5 1-1.4.9-2-.2-3.7-1.1-5.4-1.9-.6-.3-1.1-.6-1.2-1.4 0-.3-.5-.7-.8-.8-.1-.1-.6.2-.7.5-.4.6-.8 1.3-1.2 2 .5.5 1.1.9 1.6 1.4v.3c-.4 0-.8.1-1.3.1.4.3.7.5.9.6-.2.1-.4.3-.6.3-.1 0-.3.1-.4.1l-.3-.3c0 .1.1.3.2.4-.3.1-.5.3-.6.7 0 .1-.1.1-.1.2h6zm-2.7-2.2c.1.1.1.2.2.2l-.6.9c-.1-.3-.2-.5-.3-.7.2-.1.4-.2.7-.4zM13.3 80.8h2.6c.1-.1.3-.1.4-.2 0 .1.1.1.1.2h3.5c.7-.5.5-1.1.1-1.6-.6.4-1.3.8-2 1.3-.3-1.1-1-.9-1.7-.7.2-.6.4-1 .5-1.5h-.3c-.8 1.1-2 1.2-3.1 1.2-.8.1-1.5-.2-1.8.9.6 0 1.3.1 2 .1l-.3.3z" class="st4"></path><path d="M45.4 80.8h3.8c.1-.3.2-.6.3-.8.5-1 0-2-1.1-1.8-.4.1-.7 0-1.1-.1.1-.1 0-.1-.1-.1-.2-.1-.4-.2-.6-.2h-.3c.2.2.3.4.5.6-.1.1-.1.2-.2.2H46c0 .1.1.1.1.2-.3.1-.4.4-.4.8.1.3-.1.7-.3 1.2zM28.2 74.7c-.6-.1-1.2-.2-1.6-.3-.4-.4-.6-.7-.9-.9-.1.1-.2.2-.4.2.3.7.4 1.5.9 2 .8.8 1.2-.7 2-1z" class="st4"></path><linearGradient id="SVGID_1_" x1="100.58" x2="100.58" y1="80.576" y2="155.794" gradientUnits="userSpaceOnUse"><stop offset="0" style="stop-color:#5a92b5"></stop><stop offset=".101" style="stop-color:#517c97"></stop><stop offset=".213" style="stop-color:#49697e"></stop><stop offset=".339" style="stop-color:#435b6b"></stop><stop offset=".484" style="stop-color:#3e515d"></stop><stop offset=".666" style="stop-color:#3c4b55"></stop><stop offset="1" style="stop-color:#3b4953"></stop></linearGradient><path d="M4.6 80.6h192v75.2H4.6z" style="fill:url(#SVGID_1_)"></path><path d="M195.4 4.6v147.6H4.6V4.6h190.8M200 0H0V156.8h200.1V0h-.1z" class="st6"></path><path d="m5.8 120.8 2.5-.7v-12.9c0-.6 0-1-.1-1.2-.1-.2-.3-.4-.7-.5l-1.7-1 .1-3h18.3c.2 2.4.2 4.7.2 6.9l-2.5.2-2.4-3-5.1-.1v5.5l7.2-.6v5.2l-7.2-.8v5.4l5.6-.1 2.6-3 2.5.2c-.1 2.4-.3 4.7-.5 6.9H6l-.2-3.4zM26.8 120.7l2.1-.6v-12.9c0-.6 0-1-.1-1.2-.1-.2-.3-.4-.7-.5l-1.4-.8.1-3.2h10.5l.2 3.4-2.5.7v14.6l4.3-.1 2.9-3.3 2.6.1c0 1.9-.2 4.3-.5 7.3H27l-.2-3.5zM54.6 120.8l2.5-.7v-12.9c0-.6 0-1-.1-1.2-.1-.2-.3-.4-.7-.5l-1.8-1 .2-2.7c1.7-.3 3.3-.5 4.9-.6 1.5-.1 3.2-.2 4.9-.2 2.4 0 4.4.3 5.9.8s2.6 1.3 3.2 2.4c.7 1.1 1 2.6 1 4.4 0 2.4-.8 4.2-2.5 5.6-1.7 1.4-4 2-7 2l-1.9-.1v2.6c0 .5 0 .9.1 1 .1.2.3.3.6.5l2.1 1.2-.1 2.7H54.8l-.2-3.3zm13.5-8.7c.2-1.1.4-2.3.4-3.5 0-1.3-.3-2.3-.8-2.8-.5-.6-1.3-.8-2.4-.8-.4 0-1 0-2 .1v7.2c.6.1 1.3.2 2.2.2 1.1 0 2-.1 2.6-.4zM76.3 120.8l2.5-.7v-12.9c0-.6 0-1-.1-1.2-.1-.2-.3-.4-.7-.5l-1.8-1 .2-3h10.8l.1 3.4-2.4.7v13.2c0 .5 0 .9.1 1 .1.2.3.3.6.5l1.7 1-.1 2.9H76.5l-.2-3.4zM89.6 120.8l2.5-.7v-12.9c0-.6 0-1-.1-1.2-.1-.2-.3-.4-.7-.5l-1.8-1 .2-2.8c3.4-.5 6.6-.7 9.8-.7 2.4 0 4.4.2 5.9.7 1.5.5 2.6 1.2 3.3 2.3.7 1 1 2.4 1 4.1 0 1.4-.4 2.6-1.1 3.7-.7 1-1.7 1.9-3.1 2.4l5.4 8.7v1.3h-6.1l-5-9h-1.5v3.8c0 .5 0 .9.1 1 .1.1.3.3.6.5l1.5.8-.1 2.9H89.7l-.1-3.4zm13.3-9.7c.2-.8.3-1.8.3-2.9 0-1.1-.2-1.9-.7-2.4-.5-.5-1.3-.7-2.4-.7-.6 0-1.3 0-1.9.1v6c.6.1 1.3.2 2.1.2 1.2 0 2.1-.1 2.6-.3zM112.1 120.8l2.5-.7v-12.9c0-.6 0-1-.1-1.2-.1-.2-.3-.4-.7-.5l-1.8-1 .2-3H123l.1 3.4-2.4.7v13.2c0 .5 0 .9.1 1 .1.2.3.3.6.5l1.7 1-.1 2.9h-10.8l-.1-3.4zM131.1 109.9l.6 8.8c0 .5.1.9.2 1 .1.2.3.3.6.5l1.8 1.2-.1 2.8h-8.8l-.2-3.7 1.8-.4.1-13.3c0-.4 0-.7-.1-.9-.1-.2-.2-.3-.5-.5l-1.2-.9.2-3h7l10.2 13.1-.5-7.5c0-.5-.1-.9-.2-1-.1-.2-.3-.3-.6-.5l-1.8-1.1.1-2.8h8.7l.1 3.4-1.7.7-.1 18.3-3.9 1.3-11.7-15.5zM150.3 120.8l2.5-.7v-12.9c0-.6 0-1-.1-1.2-.1-.2-.3-.4-.7-.5l-1.7-1 .1-3h18.3c.2 2.4.2 4.7.2 6.9l-2.5.2-2.4-3-5.1-.1v5.5l7.2-.6v5.2l-7.2-.8v5.4l5.6-.1 2.6-3 2.5.2c-.1 2.4-.3 4.7-.5 6.9h-18.6l-.2-3.4zM174 121.9c-1.8-1.9-2.8-4.8-2.8-8.6 0-2.5.5-4.7 1.4-6.5.9-1.8 2.2-3.2 3.9-4.2 1.7-1 3.7-1.5 6.1-1.5 7.5 0 11.3 3.8 11.3 11.5 0 2.5-.5 4.7-1.4 6.5-.9 1.8-2.3 3.2-4 4.2-1.7 1-3.8 1.5-6.2 1.5-3.7-.1-6.5-1-8.3-2.9zm12.7-2.8c.2-.7.4-1.6.6-2.6.1-1 .2-2.1.2-3.1 0-2.5-.5-4.4-1.4-5.7-.9-1.3-2.3-1.9-4.1-1.9-1.3 0-2.5.2-3.7.7-.2.4-.4 1.1-.6 2.1-.1 1-.2 2.1-.2 3.4 0 2.6.5 4.6 1.4 6 .9 1.4 2.3 2.1 4.1 2.1 1.4-.1 2.6-.4 3.7-1zM10.9 139.5l.5 7.7c0 .5.1.7.1.9.1.1.3.3.5.4l1.5 1-.1 2.5H5.9l-.1-3.2 1.6-.4.1-11.6c0-.4 0-.6-.1-.8-.1-.1-.2-.3-.4-.5l-1.1-.8.2-2.6h6.1l8.9 11.4-.4-6.6c0-.5-.1-.8-.1-.9-.1-.1-.3-.3-.5-.4l-1.5-1 .1-2.5h7.6l.1 3-1.5.6-.1 15.9-3.4 1.1-10.5-13.2zM30 150c-1.6-1.6-2.4-4.1-2.4-7.5 0-2.2.4-4.1 1.2-5.7.8-1.6 2-2.8 3.4-3.7 1.5-.9 3.3-1.3 5.3-1.3 6.6 0 9.8 3.3 9.8 10 0 2.2-.4 4.1-1.2 5.7-.8 1.6-2 2.8-3.5 3.6-1.5.8-3.3 1.3-5.4 1.3-3.1.1-5.6-.7-7.2-2.4zm11.2-2.4c.2-.6.4-1.4.5-2.3.1-.9.2-1.8.2-2.7 0-2.2-.4-3.8-1.2-4.9-.8-1.1-2-1.7-3.6-1.7-1.1 0-2.2.2-3.2.6-.2.4-.4 1-.5 1.8-.1.9-.2 1.8-.2 2.9 0 2.3.4 4 1.2 5.2.8 1.2 2 1.8 3.6 1.8 1.1.1 2.1-.1 3.2-.7zM54.6 151.4c.1-1.9.3-3.7.5-5.4l2.3-.4 1.5 2.5c1.2.4 2.2.6 3.1.6.3 0 1-.1 2-.3 0-.4.1-.7.1-.8 0-.5-.1-.8-.2-1.1-.2-.2-.5-.5-1-.8-.5-.3-1.5-.8-2.9-1.4-1.7-.8-2.9-1.7-3.6-2.7-.7-1-1.1-2.1-1.1-3.4 0-2 .7-3.6 2.1-4.7 1.4-1.1 3.3-1.7 5.7-1.7 1.2 0 2.3.1 3.5.3 1.1.2 2.2.5 3 .9 0 1.1-.1 2.5-.3 4.1l-.1 1.3-2.1.3-2.2-2.9c-.7-.2-1.6-.3-2.6-.3-.7 0-1.2.1-1.5.2-.1.4-.1.7-.1.9 0 .4.1.8.3 1.1.2.3.6.7 1.1 1 .5.3 1.4.8 2.4 1.3 1.6.7 2.8 1.4 3.6 2 .8.6 1.4 1.2 1.7 1.8.3.6.5 1.4.5 2.3 0 1.9-.8 3.5-2.3 4.6-1.6 1.1-3.7 1.7-6.4 1.7-2.6 0-4.8-.3-7-1zM71.3 149.1l2.1-.6v-11.3c0-.5 0-.8-.1-1-.1-.2-.3-.3-.6-.5l-1.5-.9.1-2.6h16c.1 2.1.2 4.1.2 6l-2.2.1-2.1-2.6-4.4-.1v4.8l6.3-.5v4.5l-6.3-.7v4.7l4.9-.1 2.3-2.6 2.2.1c-.1 2.1-.2 4.1-.4 6H71.5l-.2-2.7zM95.5 135.7l-1-1.4.1-2.1h8.5l.3 2.8-2.1.5 3.9 11.2 3.5-10.2c.1-.2.1-.3.1-.4 0-.3-.1-.4-.4-.5l-2-.8.2-2.6h7.7l.2 2.5-1.3 1.6-6.4 15.8-5.1.4-6.2-16.8zM115.9 149.1l2.1-.6v-11.3c0-.5 0-.8-.1-1-.1-.2-.3-.3-.6-.5l-1.5-.9.1-2.6h16c.1 2.1.2 4.1.2 6l-2.2.1-2.1-2.6-4.4-.1v4.8l6.3-.5v4.5l-6.3-.7v4.7l4.9-.1 2.3-2.6 2.2.1c-.1 2.1-.2 4.1-.4 6H116l-.1-2.7zM139.4 139.5l.5 7.7c0 .5.1.7.1.9.1.1.3.3.5.4l1.5 1-.1 2.5h-7.7l-.1-3.2 1.6-.4.1-11.6c0-.4 0-.6-.1-.8-.1-.1-.2-.3-.4-.5l-1.1-.8.2-2.6h6.1l8.9 11.4-.4-6.6c0-.5-.1-.8-.1-.9-.1-.1-.3-.3-.5-.4l-1.5-1 .1-2.5h7.6l.1 3-1.5.6-.1 15.9-3.4 1.1-10.3-13.2zM156.3 151.9l-.1-2.8 2.1-.6v-11.2c0-.5 0-.8-.1-1-.1-.2-.3-.3-.6-.5l-1.5-.9.2-2.4c2-.2 3.8-.3 5.2-.4 1.4-.1 2.5-.1 3.4-.1 2.7 0 4.9.3 6.5.9 1.6.6 2.8 1.6 3.6 3 .8 1.4 1.1 3.1 1.1 5.4 0 2.8-.6 5.1-1.9 6.9-1.2 1.5-2.7 2.6-4.6 3.1-1.9.6-4.3.9-7.3.9-2.2 0-4.2-.1-6-.3zm13.5-4.5c.2-.5.3-1.3.5-2.3.1-1 .2-2 .2-2.9 0-2.2-.5-3.9-1.4-4.9-.9-1.1-2.3-1.6-4.2-1.6h-.7c-.2 0-.4 0-.6.1v12.1c.8.1 1.5.1 2.2.1 1.8 0 3.1-.2 4-.6zM177.2 149.1l2.1-.6v-11.3c0-.5 0-.8-.1-1-.1-.2-.3-.3-.6-.5l-1.5-.9.1-2.6h16c.1 2.1.2 4.1.2 6l-2.2.1-2.1-2.6-4.4-.1v4.8l6.3-.5v4.5l-6.3-.7v4.7l4.9-.1 2.3-2.6 2.2.1c-.1 2.1-.2 4.1-.4 6h-16.2l-.3-2.7z" class="st6"></path></svg>