<?xml version="1.0" encoding="UTF-8"?>
<svg xmlns="http://www.w3.org/2000/svg" xml:space="preserve" id="Capa_1" x="0" y="0" style="enable-background:new 0 0 300 300" version="1.1" viewBox="0 0 300 300">
  <style>.st2{fill:#3b4b54}.st5{fill:#8f8749}.st7{fill:#fff}</style>
  <path d="M4.2 187.4h292v109.1H4.2z" style="fill:#2d3f45"></path>
  <path d="M4.3 3.9h291v152.9H4.3z" style="fill:#f2ce4e"></path>
  <path d="m69.6 151.3.9 1.2c0 .1.3 0 .4-.1.1-.1 0-.3 0-.4-.3-.3-.7-.6-1.1-.8-.1 0-.1 0-.2.1z" class="st2"></path>
  <path d="M6.2 156.1h242.1c-.2-1-3.3-3.2-6-3.3-1.1-.1-2-.4-2.6-1.4-.3-.5-.9-1-1.4-1.3-1.5-.8-2.6-2-3.9-3.1-1.5-1.2-3.5-1.8-5.3-2.6-.1-.1-.4.1-.5.1-1-1.6-1.8-3.3-3-4.7-2-2.4-4.2-4.4-7-5.8-.3-.1-.4-.5-.6-.7l-2.6-2.6c-.3-.3-.6-.5-.9-.8-1.3-1.6-1.3-3.6-2.1-5.4-1.7-3.6-3.7-7-5.7-10.5-.6-1-.9-1-1.5.1-.4.7-.8 1.5-1.2 2.3h-.5c-.3-.9-.7-1.7-1-2.6-.5-1.3-.7-2.7-1.3-4-.7-1.6-.9-3.3-.9-5 0-1-.1-2.2-.6-3-1.8-2.9-3.7-5.8-5.6-8.6-.1-.2-.4-.4-.5-.6l-2.1-2.4c-.5-.5-1-1-1.5-1.6-.5.6-1 1.2-1.4 1.8-.7 1.3-1.1 2.7-1.8 4-.7 1.3-1.9 1.3-2.6 0l-.9-1.5c-.6-1.1-.9-1.2-1.9-.4-.7.6-1 .5-1.5-.2-1-1.3-2.4-2-4-2.3-.5-.1-1-.4-1.3-.8-.4-.7-1-.9-1.8-1.2-1.3-.5-2.6-1-3.6-1.9-2.4-1.9-4.6-4-6.9-6.1-.5.3-.7.5-1 .7-.9-2.6-2.9-4.2-4.7-5.9-1.1-1.1-2.8-1.7-4.3-2.6-.3.5-.6 1.1-1 1.7-1.1-.8-2-1.4-2.9-2.1-.3-.2-.8-.3-1-.6-1.1-1.3-2-2.7-3.1-4-.6-.8-1.5-1.3-2.2-2-1.3-1.3-2.8-2.5-3.9-3.9-1.9-2.5-3.5-5.2-5.3-7.7-.2-.3-.6-.7-1-.7-1.8-.2-3.4.2-5 1.3-1.5 1-2.7 2.1-3.6 3.6-.1.2-.5.4-.7.6-.8.7-1.7 1.3-2.2 2.2-1.8 2.8-3.5 5.8-5.3 8.6-.8 1.3-1.5 2.8-3.4 3-.9.1-1.2.9-1.5 1.7-.5 1.2-1.2 2.4-2 3.5-.5.7-1.3 1.3-1.8 2-1.3 2.2-2.7 4-5.5 4-.4 0-.8.3-1.2.5-2.2 1-4.3 2-6.5 2.8-.9.3-1.8.4-2.7.6-3 .5-6 1.1-9.1 1.6-.4.1-.7.2-.9.3-.4.8-.9 1.4-1.5 2 0 .1-.1.2-.1.2-.1.4-.5.9-.8 1-.4 0-.7.1-1.1.1-3.5 1.7-8.4 2.2-10.8 3.2-2.1.9-3.8 2.3-6 3-.1 0-.3.1-.4.1-3.6 1.2-18.6 6.5-18.6 6.8-7.5 2.5-15.3 2.4-22.7 5.3-4.6 1.8-8-.4-12.3.5v44.7z" style="fill:#d3764c"></path>
  <path d="M229.8 149.1c.1 0 .2-.1.2-.1-.1 0-.1 0-.2.1-.1 0-.1 0-.1.1 0-.1 0-.1.1-.1zM157.2 156.1c.9-.2 1.8-.3 2.6-.7 2.8-1.2 5.7-.1 8.6-.4.8-.1 1.3.2.9 1.1h-12.1zM195.9 155.7l3.3-.6c.3-.1.7-.1 1-.1.7.1 1.4.3 2.3.5-.7.2-1.3.4-2 .6h-5.1c.2-.1.3-.3.5-.4 0-.1 0 0 0 0zM59 153.6h3.2c.1.8-.2 1.3-1 1.3-.7 0-1.5-.1-2.2-.1v-1.2zM170.3 156.1c.1-.3.3-.8.4-.8 1-.1 2 0 3.1 0-.2.4-.4.6-.5.9-1-.1-2-.1-3-.1zM136.2 111c.2.7.5 1.3.7 2 .1 0 .3-.1.4-.1-.1-.4-.2-.8-.2-1.2.1-.1.2-.1.3-.2.4.5.8 1 1.3 1.5-.5.3-.9.5-1.4.8.5.4.9.7 1.2 1 .5.6.9.5 1.3 0 1.2-1.5 2.6-2.8 3-4.8.1-.2.2-.4.5-.6v2.1c-.2-.1-.3-.1-.5-.2-.3.3-.1 2.6.3 3-.4 1.1-.5 1.2-1.5.5-.2-.1-.7 0-.9.2-.3.3-.5.8-.7 1.2.2.2.4.5.6.7-.2.2-.6.4-.6.6 0 1.3-.3 2.7.7 3.9.3.3.2.9.3 1.4 0 .2-.1.4-.1.7.1 0 .2.1.4.1.4-1 .8-2 1.3-3 .1.1.3.2.4.2-.2.3-.4.6-.6 1 .4.4.1 1.7 1.5 1.3.1.5.2 1 .3 1.7.3-.4.5-.6.6-.8.3-1 .7-2 .8-3 .1-.7.1-1.7-1.2-1.9-.1.7-.1 1.4-.2 2.1-1.1-.9-1.1-2.2-1-3.3.2-1.2.4-2.3.2-3.5.8-1.6 1.7-3.2 1.5-5.1 0-.1 0-.4.1-.4 1-.5.9-1.6 1.2-2.4.2-.4.1-1 0-1.5-.1-.6-.3-1.3-.6-1.9-.6-1.2-.8-2.3.2-3.5.2-.3.1-.9 0-1.3-.5-1.4 0-2.7.7-3.9.6-1.1.6-2.1.5-3.3-.3-2-.1-4-.4-5.9-.3-2 .6-3.8.9-5.6.2-1.3 1-2.6 1.7-3.7.2-.3 1-.1 1.7-.2.6-.8 1.3-1.8 2.1-2.8 1.5.7 1.5 1.1 1.2 2.5-.3 1.2-.3 2.5-.4 3.8-.1 1-.2 2.1-.6 3-.4 1.3-1 2.5-1.5 3.7-.1.3-.2.6-.1 1.1.3-.3.6-.7.9-1-.8 1.4-.2 2.6.1 4 .2.8-.1 1.7-.1 2.5.2-.4.5-.8.7-1.2.1.1.3.1.4.2-.6 1-1.2 2-1.7 3-.4 1-.6 2.1-1 3.4 1.2-.2 1.4.5 1.4 1.3 0 .6.5 1.2.7 1.9.5 1.3.2 2.6.1 4-.3 2.2-1.7 3.7-2.7 5.4-.2.4-.4 1-.4 1.5-.1.7-.1 1.4-.1 2.1 0 .4.1.9.1 1.3-.2-.4-.4-.9-.7-1.3-.1-.2-.4-.4-.5-.6-.2.2-.5.4-.5.6.1 1.1.4 2.2.6 3.3 1.2-1.4 1.2-1.4 1.2-2.1.4 0 .8-.1 1.2-.1.1-.5.1-.9.2-1.4h.2c.2.6.3 1.1.5 1.7.1.1.2.1.2.2.5-1.7 1.5-3.1 3.2-3.9-.7 1-1.4 1.9-1.8 3-.5 1-.7 2.1-.8 3.2 2.1-.4 1.9-2.5 2.9-3.5.4-.2 1.2-.3 1.2-.4 0-1.1-.2-2.1-.4-3.3.4.5 1 1.1 1.7 2-.1-1-.2-1.6-.2-2.4.9.2 1.2.6 1.3 1.3.1 1.3.4 2.7.6 4.3-.6-.3-1.4-.6-2-.8-.5.6-1.1 1.1-1.7 1.8.1.2.2.6.3 1.1 1.5.6 1.5-1.5 3-1.6-.6.8-1.1 1.4-1.6 2.2.6-.2 1-.4 1.6-.7.1.4.1.7.2 1.1.7.3 1.8-.5 2 .9-.3.1-.6.2-1 .4.4 1.4.7 2.8 1.1 4.2-.3-.2-.7-.5-1.2-.9-.1.6-.3 1.1-.3 1.7 0 .7-.3.8-.9.5.3-1.1.7-2.2 1-3.4-1.2-.1-1.5.7-1.6 1.3-.1.7.3 1.4.5 2.1.3.7.6 1.4.8 2.1.1.4.2.8.2 1.2-.1.9.1 1.4 1.1 1.4.1.7.3 1.4.4 2.1-.1 0-.2.1-.3.1-.3-.2-.6-.4-1.1-.8.4.9.7 1.4 1 2.2-1.1-.5-1.5-.3-1.2.8.3 1 .4 2 .6 3.1-.6-.3-1.2-.7-1.9-1.1-.6 1.4-1 2.9 0 4.4-.1.1-.2.1-.3.2-1-.9-2-1.8-3-2.8 1-1.2 1.1-1.9.4-2.9-.3.1-.6.3-1.1.6 1.5-4.6 2.7-8.9.2-13.4-.2.5-.6 1-.6 1.5s.3 1.5.6 1.5c1.3.3.8 1.4 1.1 2.1.1.3-.1.7-.2 1.4-.6-1-1-1.7-1.5-2.7 0 .4-.1.7 0 .8.4.7.6 1.3-.1 1.9-.2.2-.1.9 0 1.4.1.7.2 1.3.4 2-.1 0-.2.1-.3.1-.3-.6-.5-1.2-.8-1.8-.2 2 .2 4.2-1.7 5.9-.1-1.2-.9-1.6-1.9-1.9-.3-.1-.5-.3-.7-.5-.5-.6-1.1-1.2-1.4-1.8-.2-.4-.2-1 0-1.5.3-.7 1-1.3 1.2-2.1.2-.7-.2-1.5 0-2.3.1.7.3 1.4.4 2.2h.4c.1-.6.3-1.2.4-1.9.1-.6.1-1.2 0-1.8-.1-.3-.5-.6-.8-.9-.1 0-.4.3-.6.5l-1.2 1.2c-.2.3-.4.7-.6 1.2.4-.1.6-.1.7-.2.1.8.5 1.7.3 2.3-.3.7-1.1 1.2-1.9 1.8.3-.8.6-1.5.9-2.5-1 .6-1.7 1.1-2.3 1.5v-4.6c-.7.7-1.2 1-1.3-.4 0-.6-.4-1-1.2-.9-.9.2-1.9-.1-2.8.5-.3.2-1.2-.4-1.8-.7-.9-.6-1.8-1.2-2.7-1.9l-.1-.1c1.3-1.1 1.4-2.1-.1-3.2.5.1.9.2 1.2.2.1-.5.1-1.1.2-1.8l-.5-.5c1.6-.3.7-1.3.7-2.1-.1-.9-.4-1.7-.4-2.6 0-1-.7-1.7-1.1-2.5-.4-.9-.4-2-.6-3-.4-1.6-.2-3 1.2-4.3 1.2-1.1 2-2.5 3.1-3.9 0 .4.2.8 0 1.1-.7 1.4-1.7 2.8-1.4 4.5 0 .1-.3.3-.5.4 1.5 1.9.4 4 .3 6.1-.2-.5-.3-.9-.5-1.4-.1-.2 0-.6-.2-.7-.5-.4-1-.8-1.6-1.3-.5 1.5-.5 3.1 1.2 3.6zm21 19.7c-.1.1-.3.2-.4.2.6 1.2 1.2 2.3 1.9 3.5.2-.9 1.2-2-.6-2.3-.2 0-.3-.4-.4-.7-.2-.1-.3-.4-.5-.7zm-7.4-5.8c.7-.8.8-1.9.2-2.6-.1-.1-.4-.2-.6-.1-.1.1-.3.4-.3.5.2.7.4 1.4.7 2.2zm1.4 6.5c.2 0 .3.1.5.1.3-.7.6-1.5.9-2.2-.3-.1-.6-.2-.9-.4-.1 1-.3 1.7-.5 2.5zm5.1-8.3c.2.1.4.1.6.2.1-.7.3-1.4.4-2-.1 0-.3-.1-.4-.1-.2.6-.4 1.3-.6 1.9zM127.2 108.9l-1.2 2.7c-.1.3-.1.7.1.9.4.9.8 1.7 1.2 2.6-1.1-.2-2-1.3-1.9-2.3 0-.6-.5-1.2 0-1.9.1-.2-.3-.7-.5-1.1-.2-.4-.5-.7-.5-1.2.1.2.3.3.5.5.1-.2.2-.3.2-.5l.8.8c.1-.1.2-.1.3-.2-.4-.6.9-1.7-.6-1.8-.2-1.2-.5-2.4-.7-3.6 0-.1-.1-.4 0-.5.9-1.1.7-2.1-.2-3.1.1-.1.2-.1.3-.2.4.4.7.9 1.1 1.3 1.2-1.3 1.2-2.5.3-3.8-.3-.4-.2-1.2-.1-1.7.6-2.3.3-4.5-.8-6.7-.6-1.1-.9-2.3-1.4-3.4-.7-1.7-1.2-3.4-2-5-.9-1.8-1.8-3.8-3.1-5.2-1.2-1.3-2-2.3-2.1-4.1-.1-1.2-1.5-.8-2.6-.7.2-.3.3-.6.5-.8.7-1.2 1.3-2.3 2.1-3.5 1.5-2.4 2.9-4.8 4.4-7.1.2-.3 1-.4 1.3-.7l1.8-2.1c.3-.4 2.4-2.4 3.4-2.7.1 1.6-2.1 4-1.9 5.5-.3-.4-.5-.7-.7-1-.2.5-.4.9-.5 1.4-.6 1.6-1.7 2.6-3.1 3.4-.6.4-.8 1.3-1.2 1.9-.2.3-.5.6-.7 1-.2.4-.5.8-.6 1.2-.1.4.1.6.7.8 1.6.5 2.6 1.7 2.9 3.5h-.6c.2.6.3 1.2.5 1.9.6-.2 1.1-.5 1.6-.7.7.8 1.5 1.7.8 3.2.4-.3.7-.5 1-.8.4.7.8 1.4 1.2 2l-.2.2c-.4-.1-.7-.2-1.1-.4-.1.1-.2.2-.3.2.6.6 1.3 1.2 1.9 1.8.7.7 1.4 1.3 2 2 1 1.1.2 1.9-.4 2.8l-.6-.6c-.1 0-.2.1-.3.1.6 1 1.4 1.9.4 3.2.5 0 .8-.1 1.2-.1.1 1 .1 2 .2 3 .1.5.4 1.1.3 1.5-.2.8-.5 1.7-1 2.4-.3.4-.7 2.3-.3 2.9.6 1.2 1.2 2.3 1.7 3.4l-.8.8c-.6-.7-1.2-1.4-1.9-2.3-.4 1-.8 1.9-1.2 2.7-.3.6-.8 1-.9 1.6-.4 1.4.5 2.4 1.1 3.5.2.3.2.7.2 1 .1.9 0 1.5 0 2.1zm-8-35.6c.5-.9.9-1.7 1.4-2.6.1-.3.1-.6.2-.9-.4 0-1-.2-1.3-.1-.9.4-1 2.9-.3 3.6zm9.5 14v-2.9c-.7 1-1.5 2 0 2.9zM102.3 113.5h-.8c.5-1.5 1.2-3 .6-4.8l1.2.6c-.4-.7-.6-1.2-.9-1.8-.8.3-1.6.6-2.5 1-.1-.7-.2-1.4-.3-2.2 1.7-.3 2.5-3.2 1.4-5.2 1.3 0 2-.4 2.3-2 .3-1.4.3-3 .6-4.4.3-1.1.2-2.1.2-3.1 0-1.9-.5-3.7-1.4-5-1.1.2-2 .2-2.8.4-.5.1-.9.5-1.4.8h-.1c-.4-.1-1-.3-1.3-.2-1 .3-2 .8-2.9 1.3-.6.4-1.1.2-1.5-.2-.3-.4-.5-.8-.9-1.4.4-.1.8-.3 1-.2.9.7 1.4 0 1.8-.5.7-.9.7-.9 1.7-.5.5-.3.9-.6 1.3-.8 2-.8 4-1.5 5.9-2.6 1.2-.7 2-1.8 3-2.9.8-.9 1.5-1.8 2.2-2.8.9-1.2 1.6-2.5 2.5-3.8 1.3.8 1.3.9.2 1.5.1.2.3.4.4.6.1.2.3.3.5.6-2.1 1.3-.9 3.5-1.2 5.2-.5-.1-1-.2-1.3-.1-.2.1-.1.7-.2 1v1.3c.7-.5 1.6-1.2 2.5-1.8.1.8 1 1.9-.6 2.3-.3.1-.3 1.1-.4 1.6.4 0 .6.1.8.1-.1.2-.1.5-.2.5-1.8.1-1.1 1.7-1.5 2.5-.2.4-.2.8-.5 1.1.1-.8.2-1.5.3-2.3-.4.3-1.2.2-.9 1.2.2.5-.5 1.3-.7 2-.2.8-.4 1.7-.6 2.5-.3.9-.4 1.8-.9 2.5-.8 1.2-.9 2.6-.6 3.9.4 1.5 1 3 1.6 4.6-.5.5-.9.4-1-.4 0-.5 0-.9-.2-1.3-.5-.7-1.1-1.4-1.6-2.1-.8 1-.4 1.9 0 2.7.1.3.8.3 1.4.6.4.8 1 1.8 1.6 2.9.1 0 .2-.1.3-.1v-2h.3c.3 1.3.6 2.7.8 3.7-.7.9-1.1 1.5-1.6 2.2-.2-.1-.5-.3-.7-.5l-.3.3c.5.4 1.1.8 1.6 1.2-.9-.2-2 .1-2-1.5 0-.6-1-1.1-1.5-1.7-.4.6-.7.8-.9 1.2-.3.9-.6 1.9-.9 2.8-.6.8-.8 1.1-.9 1.5zm4.4-4.6c.9-.9.5-2.2-.8-2.7-.7-.3-1-.6-1-1.4.1-1.1-.9-1-1.6-1.3-.2-.1-.5-.1-.5 0-.4.7-.8 1.4-1.1 2.2-.3.7-.1 1.1.7 1.3 1.1.3 2 .9 3.1 1.4.1-.2.2-.4.3-.8.3.5.5.9.9 1.3z" class="st2"></path>
  <path d="M98.3 87.9s.1-.1 0 0c.1.3.2.7.2 1.1.2-.1.5-.2 1-.4.1 1.2.2 2.2.3 3.3-.1 0-.1 0-.2.1-.1-.4-.1-.8-.2-1.2-.1-.4-.1-.9-.2-1.5-1.2.7-1.4 1.6-1.3 2.7 0 .1.4.1 1 .3-.2 2-.5 4.2-.8 6.4-.1-.1-.2-.1-.3-.2-.3.2-.7.5-1.1.8.2-.6.3-1.2.5-2 .2.3.3.5.5.7-.4-1.8 1-3.8-.3-5.5H97c-.3 1.4-.6 2.7-.9 4.1-.3 0-.3 0-.7-2.1-1.4 1.4-.4 3-.4 4.6h-.3c-.2-.4-.4-.9-.7-1.6-.2.7-.5 1.1-.6 1.6-.1 1.2-.2 2.5-.3 3.7 0 .2.2.5.3.7.7.7.8 1.4 0 2.1.2.2.4.4.8.6-.3.1-.5.2-.6.1-.9-.3-1.1.3-.9.9.3 1.5.7 3 1.1 4.5.1.4.5.8.8 1.2.6-1.4 1.2-2.6 1.7-3.7.1 0 .2 0 .3.1.1.7.2 1.3.3 2-.1.1-.3.2-.4.3-.1-.2-.3-.4-.6-.8-.2.9-.3 1.8-.4 2.8 1 .3 1.2.9.6 1.9-.3 0-.6-.1-.8-.1-.1.4-.1.8-.2 1.1 1.7.7.4 1.9.6 2.8l-.3.3-3.7-3.7c1.4-.1 1.5-.2.8-2.3-.2.4-.4.8-.7 1.3-.4-1.5-.9-2.8-1.1-4.2-.1-.7.3-1.5.4-2.3 0-.3-.1-.6-.2-.9-.2.2-.6.3-.7.5-.6 1.3-1 2.6-2.2 3.5-.3.2-.5.8-.6 1.2-.2.5-.3 1.1-.4 1.7-.2.8-.3 1.6-.5 2.4.1 0 .2.1.3.1l.4-.4c0 .5-.1 1-.1 1.6-1-.3-1.9-.8-1.8-1.8.1-1.3-.5-1.2-1.8-.8.2-.9.6-1.7.4-2.2-.4-1.3 1.7-2.3-.2-3.7.6-.1 1-.2 1.1-.1.2.1.2.5.2.8.1.4.1.8.2 1.3-.1.4-.1.9-.2 1.6.5.6.9.5 1.3-.4.2-.5.5-.9.7-1.3.4-.9.8-1.8 1.3-3-.6.4-.9.6-1.2.9-.1-.4-.2-.9-.4-1.3-.1-.3-.4-.5-.6-.8.4.2.8.5 1.5.9-.3-1.6-.5-2.9-.8-4.2.1 0 .3-.1.4-.1.1.8.2 1.6.3 2.3h.2c.4-1.7.8-3.4 1.2-5 .1-.5.4-1 .7-1.4 1.1-1.7 2.1-3.4 1.5-5.5 0-.1.1-.2.2-.5.2.5.4.9.5 1.2.7-.3 1.6-.4 2-.8.5-.5.7-1.3 1.1-2.2 2.1.2 1.4-1.9 2-3 .1.1.2.1.2.2.6-.6.9-1 1.2-1.3zM71.8 96.5c-.1.2-.2.5-.2.5l2.7 1.8c.5-1.4.9-2.6 1.4-3.8h1.5c0 .2.7.8-.4 1-.1 0-.1.6-.1.8.1.4.3.8.4 1-.4-.1-.8-.1-1.3-.2.2.4.3.8.6 1.2.2.4.6.7.7 1.1.4 1.5.2 3-.4 4.5 0 .1-.2.2-.5.3-.1-.6-.1-1-.1-1.4h-.9c-.1.7-.2 1.3-.4 2h-.5c-.3-2-.5-4-.8-6-.1 0-.2-.1-.4-.1-.1.4-.2.9-.3 1.3-.1.4-.2.8-.4 1.2-.1 0-.2 0-.4-.1.2.6.5 1.2.7 1.8-.5.2-.8.4-1.1.6-1.8-1.1-.8-3-1.1-4.5h-.3c0 .9-.1 1.8-.1 2.8h-.3c-.1-.9-.3-1.9-.4-2.8-.1 0-.2 0-.3-.1-.2.7-.4 1.3-.7 2.1-.4-1.2-.7-2.2-1-3.3-2.6 1.6-3.5 3.6-1.9 6.3h.5c-.3.5-.6 1-1 1.5-.2.3-.5.5-.8.7.1-.3.2-.6.2-1 .9-.5.3-.9-.1-1.4-.2.3-.5.6-.7.9-.1-.2-.1-.4-.3-.9-.3.8-.5 1.3-.7 1.8-.5 1-1 1.9-1.4 2.9-.1.2-.1.4-.1.5.5 1.5.4 1.8-1 2.6-.6-1-.3-2 0-2.9.3-1 .9-1.9 1.3-2.8.1-.2.2-.5.2-.8.1-1.2.3-2.3 1.2-3.3.6-.6.8-1.5 1.2-2.3.7-1.5 1.6-2.9 2.9-3.9.2-.2.4-.3.8-.7-.6-.1-1.2 0-1.8-.1.5-.2 1.1-.5 1.5-.6.6-.2 1.1-.2 1.8-.4 0 0 .3-.1.4.1-.1.7.1 1.6-.3 2.1-.7.8-.4 1.1.2 1.8.2-.4.4-.6.5-1 .1.4.2.8.4 1.1.2 0 .4-.1.5-.1-.2-.8-.3-1.7-.5-2.5-.1-.5-.5-.9-.8-1.3.6-.3.9-.2 1.2.5.2.8.7 1.2 1 1.5zM186.6 142.6c-.6.1-.9.4-.7 1 .4.9.7 1.9 1.1 2.8.1.4.2.9.4 1.6-.4-.5-.7-.8-1-1.2-.2.3-.3.5-.4.7-1-.3-1.5-.9-1.5-2.1 0-.6-.3-1.3-.5-1.9-.1 0-.3 0-.4.1 0 .4 0 .8-.1 1.2 0 .2-.2.5-.3.6-.2.1-.5-.1-.6-.2-.3-.5-.4-1-.4-1.6.2.3.5.7.7 1 .1 0 .2-.1.2-.1l-.3-.9c-.4-.7-.5-1.3 0-2.1.2-.3 0-.9 0-1.4-1.9-.2-2.9-1-2.8-2.1.1-.6.2-1.3.1-1.9-.1-.8-.3-1.6-.4-2.3.2-.5.3-1 .5-1.5.2-.4.4-.9.7-1.4.7.4 1.4.9 2.1 1.4 0 .1-.1.2-.1.3-.5-.1-.9-.1-1.6-.2.3.3.4.7.6.7 1.7.5 2.7 1.6 2.8 3.4 0 .2.2.3.3.5 1.1 1.3 1.9 2.7 1.3 4.6-.2.3.1.7.3 1zM192.4 112.1c-.8-1.1-1.5-2.3-2.4-3.6 0 .6-.1 1.1-.1 1.6-.1 0-.2 0-.3.1-.2-1-.4-1.9-.7-2.9-.1-.4-.5-.8-.6-1.3-.5-1.3-1-2.7-1.5-4.1 0-.1.3-.3.6-.6l-.7-.7c-.3.4-.4.6-.5.8-.8-.5-1.7-.8-2.4-1.4-.8-.6-1.4-1.3-.7-2.4.2.6.5 1.2.8 2 .6-1.1 1.1-2 .5-3-.3-.6-.3-1.4.5-1.4 1.4-.1 1.7-1.2 2.2-2 .2-.3.2-.6.3-.9.2-.7.4-1.3 1.4-1.3.3 0 .5-.3.8-.5 0 .9-.1 1.8-.1 2.6-.9.6-.9-.5-1.4-.8.5 1.3 1.1 2.6 1.5 3.7-.4.4-.6.5-.8.7.2.2.5.4.9.7-.3.4-.5 1-.9 1.1-.3.1-.8-.5-1.2-.7.1.3.1.7.3 1.1.4 1 .9 1.9.4 3-.1.2-.1.9.5 1.1.2 0 .3.5.3.7-.5 1.3.6 2 .8 3.3.3-.5.5-.7.7-1 .5 2.2 1.1 4.2 1.8 6.1zM161.7 108.7c-.2-.3-.3-.5-.5-.8h-.2c.1 1.1.2 2.2.3 3.6-1.7-1.1-2.6-2.2-2.5-3.9 0-.5 0-.8-.6-1.2-.8-.5-.5-1.5.2-2.2.3 1.3.6 2.7.9 4 .8-2.1.1-5-1.3-6-1.3 1.4-.9 3-.5 4.6-1.5-1.3-1.3-3.1-1.4-4.8-.2.3-.4.5-.6.8-.6-2-.1-2.8 2.7-4.5.1 1.3.2 2.6.4 4h.4V101h.2c.4.7.8 1.5 1.2 2.4.8-.9 1.3-1.7 2-2.2.3-.3 1-.1 1.6-.2-.9.9-.9.9-1.1 2.5-.1 1-.4 1.9-.6 2.8-.2.7-.4 1.6-.6 2.4z" class="st2"></path>
  <path d="M189.3 93.3c.5-.3 1-.5 1.5-.8.5.7 1.5 1.5 1.5 2.1-.1 1.5.5 2.9-.2 4.5-.3.6.3 1.5.6 2.3.1.3.4.6.8 1.2 0-.8-.1-1.3-.1-2.1 1.9 2-.1 4.1.9 6 .5-.4.8-.7 1.2-1 .1 0 .1.1.2.1-.2.4-.6.9-.7 1.3-.2.6-.1 1.3-.2 1.9 0 .4 0 .9-.1 1.3-.3.8-.2 1.3.7 1.5-.3.9.3 1.9-.6 2.5-.3.2-.9-.1-1.6-.2 0 .6.1 1.2.1 1.8-.1 0-.2 0-.2.1l-.6-3.6c.2-1.2 1.2-2.3.2-3.5-.1-.1.1-.5.1-.7.1-.6.2-1.1.2-1.7v-.7c.1-.9.1-1.9-.3-2.8-.3-.9-1.9-.9-1.7-2.2 0 0-.1-.1-.2-.1-.5-.4-.9-.8-1.4-1.2l.2-.2c1.1.8 1.7.7 1.6-.6-.1-1.5.3-3.1-1.1-4.3-.3-.3-.5-.7-.8-.9zM80.2 97.7c.1-.6.2-1.2.4-2-.4.2-.6.3-.9.4-.1-.3-.2-.7-.3-1 1-.2 1.8-.4 2.7-.4.7-.1 1.2.2 1.1 1.1-.2 1.7 0 3.5-.6 5-.3.8-.4 1.7-.7 2.5-.1.2-.7.2-1 .4 0-.1-.1-.2-.1-.3-.3.5-.7 1-1.1 1.5-.1-.1-.1-.2-.2-.2-1.5-1.4-.6-2.7 0-4.1.4-1 .5-2 .7-2.9zM166.7 87.8c-.2.6-.4 1.3-.6 1.9.4-.3 1-.6 1.2-.8.1.7.2 1.3.3 2 0 .3-.1.6-.2.9-.4 1.4-1.4 2.7-.9 4.3 0 .1 0 .3-.1.4-.4.8-.6 1.6.1 2.4.1.2.1.5.2.8-2.3-1.1-2.9-2.3-2.1-4.7.5-1.5.2-1.8-1.5-2.1 0 .5.1 1.1.1 1.6h-.2c-.2-.4-.3-.7-.5-1.1-.5-1.1.6-1.7 1-2.4.3-.6 1-.9 1.5-1.3.2-.2.3-.6.4-.9.2-.4.3-.8.5-1.2.3.1.6.1.8.2zm-2.8 4.8c.7.1 1.1.2 1.6.3v-2.7l-1.6 2.4zM91.2 89c.1.9-.5 1.3-1.7 1.3-.2 0-.4 0-.6-.1-.2 1-.9 1.1-1.8 1.1-1.2 0-2.5.3-3.7.5-.1 0-.3.1-.4.1-1.5.1-3.1.2-4.7.3.2-.7.3-1.4.6-2 .1-.2 1.6-1.1 1.8-1.1.9.2.7-.2 1.4 1.2.1.2.7.1 1.2.1 0-.4-.1-.8-.1-1.2.4.1.7.1 1.1.2 1 .1 1.9.1 2.9-.5.6-.4 1.8-.3 2.6-.1.4.2.8.4 1.4.2zM169.1 138.7c-1.5.6-2.1-.6-3.1-1.5-.1 1.4-.2 2.6-.3 4-.8-1.6-1.9-2.7-1.3-4.4.1-.4-.8-1.2-1.3-1.8-.2-.3-.4-.7-.6-1 .1-.1.2-.2.4-.3.8.5 1.6.9 2.3 1.4 1.3-1.8.5-3.5-.4-5.2-.4-.7-.2-1.7 0-2.5.8 1.7 1.6 3.3 2.5 5-.3-.1-.6-.2-.8-.2-.7 2.7 1.3 4.4 2.6 6.5zM110.8 111.1c.5.5.9 1 1.4 1.5.6.6 1 .6 1.4-.2.5-.9 1-1.7 1.8-2.5l-1.5 8.4c.1 0 .2 0 .3.1.1-.4.2-.7.3-1.1-.1 1.5.8 3-.1 4.6-.4-1.7-1.3-2.3-2.8-1.9.1-1.3.2-2.6.3-4.2-.5.5-.7.7-.9 1v-.4c.5-.6 1-1.2 1.4-1.9.3-.5.4-1-.2-1.5-.6-.5-1-1.3-1.5-2 0 .2.1.1.1.1zM192.7 128.3c-.2-.9-.3-1.8-.5-2.7h-.4c0 .6.1 1.2.1 1.9-.3-.1-.6-.1-.9-.2v2c-.8-1.9-2.3-3.6-1.6-5.9.1-.2.1-.4.2-.5.7-.7 1.2-1.4 1.2-2.5 0-.7.9-.7 1.4-.1.2.3.7.3 1 .4-.4.3-.9.7-1.5 1.2.5 1.2 1.2 2.4 1.6 3.8.2.8-.2 1.8-.3 2.6h-.3zM77.2 117.5c-.6-1-.9-1.6-1.4-2.4-.4.6-.7.9-1 1.3-.1-.9-.2-1.6-.2-2.3 0-.2.1-.6.2-.6 1-.1 1-1.1 1.1-1.7.3-1.3.4-2.7.7-4.1.2-.9.7-1.7 1.1-2.8.1 0 .4 0 .6.1.1.7.3 1.3.4 2 1.4-.4.2-1 .4-1.7.6.7 1.2 1.4 1.9 2.1h-1.6c0 .8.1 1.5.1 2.1-.1 0-.1.1-.2.1-.3-.5-.6-1-1-1.7 0 0-.3.1-.4.3-.5 1.2-1 2.3-1.5 3.5-.1.2-.1.6 0 .8.4 1.1.9 2.2 1.2 3.4.2.5-.2 1-.4 1.6zM205.8 119.2c.2 1 .4 2 .6 3.1.1 0 .5-.1.8-.1-.1.6-.2 1.1-.3 1.7.1 0 .2 0 .3.1.1-.4.3-.8.5-1.3.3.4.5.6.7.8-1.8 2-1.2 4.2-1.1 6.6-.9-1-1.9-2-2.8-3v-1.9c.2-.2.6-.4.7-.7.5-1.3.8-2.5.1-3.9-.1-.2 0-.6.1-.9.1-.2.3-.4.4-.5zM119.3 86.8h.7c.1.1.1.1.1.2.3 1.2.7 2.3 1 3.5.1.2.1.4 0 .6-.2 1.1-.5 2.3-.7 3.5-.4-.1-.9-.2-1.4-.2-.5-1.4-.9-2.8-1.3-3.9.6-1.3 1-2.4 1.6-3.7zM147.9 152.4c1.5 0 3 .1 4.4-.1 1.3-.2 2.5-.7 3.9-1.1.1.2.2.5.3.9.3-.1.5-.2.9-.3-.2-.2-.3-.4-.6-.7 1.4.3 2.6 1.2 3.8.3.3.3.5.6.9 1-1.5.4-2.8.6-4.3.5-2.5-.1-5.1.2-7.6.3-.7.1-1.4.2-1.7-.8zM191.7 146.6c-.1-.4.2-1.1-.7-.6-.1.1-.7-.5-.9-.9-.3-.4-.3-.9-1.1-1-.4-.1-.8-.9-1.1-1.4.1-.1.2-.1.3-.2.2.3.5.6.8 1.1.1-2.4.3-4.5-.7-6.5.5-.1 1.1-.2 1.7-.3-.3 1.8-.4 3.5.9 5 .2.2.1.8.1 1.3-.1 1.2.9 2 1.1 3.1 0 .2-.1.5-.2.8-.1-.1-.1-.2-.2-.4zM134.1 122.3l.1.1c-.3.6-.6.7-1.2.6-.3 0-.7.2-1 .4-1.4.8-3.1.3-3.8-.9.4-.1.8-.2 1.4-.4.1.1.4.4.8.7.5-.5.6-1.4 1.7-1.5.5 0 1-1 1.6-1.8.3 1.2.4 2 .4 2.8zM198.7 138.7c.4.1 1 0 1.3.3.5.5 1.2 1.3 1.1 1.9-.3 1.7 1 2.6 1.4 4 .1.3.4.6.6.9-.1.1-.2.1-.3.2-.8-1.1-1.5-2.2-2.3-3.4-.2.3-.3.6-.4.9h-.4c-.1-1-.2-2.1-.3-3.3-.2.3-.3.4-.6.8-.1-1-.1-1.7-.1-2.3 0-.1 0 0 0 0zM122.1 109.6c-.6-.5-1.1-1.1-1.7-1.6-.1.1-.2.2-.4.3.1.4.2.8.4 1.3-.3-.1-.5-.1-.9-.2.2.4.3.7.4 1-.8 0-1.2-.7-.7-1.4.4-.7.3-1.1-.3-1.6-.5-.5-.7-1.3-1.1-2.1.7.4 1.4.9 2.1 1.2.5.2 1.1.1 1.6.2-1.1 1.2.9 1.9 1.1 3.1-.2-.3-.4-.3-.5-.2zM118.9 116.5c0-.3.1-.7.1-1.3.2 1.3.4 2.3.6 3.4-1.7-1.1-1.2-3.3-2.3-4.7-.1.3-.2.5-.2.7h-.4l-.3-3.9c.2 0 .4 0 .6-.1.1.9.3 1.8.4 2.6.4 0 1.2 0 1.2.1.2.5.2 1.2.1 1.8 0 .5-.2.9-.3 1.4h.5zM181.4 99.4c-.1-.8-.2-1.6-.3-2.5.3.1.6.2 1 .3-.1-.3-.2-.4-.3-.5-.3-.9-.8-1.7-1-2.6 0-.3.8-.7 1.2-1.1.1 0 .3.1.4.1-.1.7-.2 1.3-.3 2 .2.1.8.3.9.6.1.4-.1 1-.3 1.5-.3.8-.8 1.5-1.1 2.2 0-.1-.1 0-.2 0zM165.9 146.4c-.1-.6-.1-1.2-.2-1.7h-.3c-.1.3-.2.6-.3 1-1.6-.6-1.9-2.3-3.2-3.6 1.2.3 2.2 1.1 3.1 0 .7 1.4 1.4 2.7 1.3 4.2-.1.1-.2.1-.4.1z" class="st2"></path>
  <path d="M191.7 146.6c.1.1.1.3.2.4.9 1 .8-.3.9-.4 1.4.8 2.8 1.5 4.1 2.3 0 .1-.1.2-.1.4-.5-.1-1-.1-1.5-.2-.2 0-.4-.3-.6-.4-.6-.2-1.3-.4-1.9-.7 0 .5-.1 1.1-.1 1.6 0 .2-.1.4-.1.6-.1.1-.2.1-.3.2-.4-.7-.9-1.4-1.3-2 .2.1.5.1 1 .3-.3-.7-.5-1.2-.7-1.7.1-.1.3-.2.4-.4zM186 117.7c-.5-.6-.9-1.1-1.4-1.6-.1 0-.2.1-.3.1.1 1.1.3 2.2.3 3.2 0 .3-.4.6-.6.9-.2-.1-.3-.1-.5-.2V113c.9 1.7 1.7 3.1 2.5 4.7zM117.7 85.3c.6-1.4.6-2.6-.3-3.9-.1-.2.2-.6.4-1.1.3.7.4 1.1.5 1.4h.3v-2.3c.7 1.4 1.3 2.5 1.9 3.7-1 .7-1.9 1.5-2.8 2.2zM104.4 143c-.3-.5-.6-1-.8-1.5-.4-.8-.6-1.7-1.8-1.9-.6-.1-1.1-.5-1.7-.8 1.1-.7 2.5-.2 4 1.8v-1.3c1.2.3 1.4.5.3 3.7zM195.9 155.6c-1.1-.4-2.2-.7-3.4-1.1 1-1.1 2.4-.7 3.6-.4 1.3.3 1.9.2 2.5-.8.9.2 1.7.5 2.5.7 0 .1 0 .1-.1.2-1.5.2-3 .4-4.4.5-.5.2-1 .2-.7.9 0 .1 0 0 0 0zM136.1 149.6c-1.4-2.3-1.2-1.9-.8-3 1.5.7 3.2 1.3 4 2.7-1.1 0-2.2.2-3.2.3-.1 0 0 0 0 0zM185.6 105.8c-.5.4-1 .9-1.6 1.4V105h-.3c-.2.3-.4.7-.7 1-.1 0-.2-.1-.3-.1.6-1.4 1.2-2.8 1.8-4.3.2 0 .3.1.5.1-.1 1.3-.1 2.5-.2 3.8.2-.1.4-.2.7-.4.1.3.1.5.1.7 0 .1 0 0 0 0zM117.9 119.8c0 .4-.1.7-.1 1.1 0 .3.2.9.1 1-.4.2-.9.2-1.4.3.6-1.6 1.1-3.1 1.7-4.6.7 1.3 1.3 2.6 2 4l-1.2.6c-.2-.8-.3-1.6-.5-2.4h-.6zM178.7 149.1c.9-.6 1.9-1.2 2.7-1.8-.1 1-.3 2.3-.5 3.8-.3-.4-.6-.6-.7-.9-.2-.3-.2-.7-.3-1.1-.4.2-.9.5-1.3.7-.1 0-.2.1-.3.2-1.6-1.5-.4-3-.1-4.7.4 1.4-1.2 2.7.5 3.8zM162.4 126.8c.7-.6.6-1.2.1-1.8-.6-.8-.5-1.2.3-1.3.5 1.1 1 2.1 1.5 3.2-.1 0-.1.1-.2.1-.3-.2-.5-.3-1.1-.7.3.7.4 1.1.6 1.5-1.5-.1-2.4-1-3.4-1.8.1-.1.2-.3.3-.4.6.3 1.3.8 1.9 1.2zM88.9 98.1c-.1-1.3-1.8-1.6-1.6-3.1.1-.6 0-1.3.8-1.1.4.1 1 .7 1.1 1.2.2 1 .1 2 .1 3h-.4zM102 120.7c.1-.1.2-.3.4-.5v1.9c-1.2-.1-1.3-.9-1.2-1.7.1-.5.6-1.2-.4-1.4v-.1c.1-1.1.2-2.3.4-3.4.6.9 1.3 1.6.5 2.8-.4.6-.1 1.7-.1 2.5.2-.1.3-.1.4-.1zM193 140c.2.1.6.1.6.3.3 1.1.5 2.3.6 3.5 0 .3-.4.6-.9.8 0-.2.1-.5.1-.7 0-.3 0-.6-.2-.8-.1-.1-.5.1-.6 0-.3-.2-.7-.4-.8-.7-.3-.8-.4-1.6-.7-2.6.4.2.5.2.7.3.4.7.7 1.5 1.1 2.2.2-.1.3-.1.5-.2-.1-.6-.2-1.4-.4-2.1zM203.8 140.1c1.1.7 1.4 1.7.9 3.1-.2.6-.5 1.3.2 1.8.1 0 .1.1.1.2.2 1.1.4 2.3.6 3.3-.6-.4-1-.8-1.1-1.9.1-2.1-.4-4.3-.7-6.5zM207.3 151.6c.7-.3 1-.5 1.5-.8-.9-1-1.7-2-2.6-3.1 1.3-.3 1.6.2 1.9 1 .1.4.4.7.6 1.1.2.4.6.8.6 1.2 0 .5-.3 1-.4 1.5-.6-.3-1-.6-1.6-.9zM190.3 136.7c-1.7-1.8-1.9-2.5-2-5 .8.8 1.6 1.4 2 2.2.3.8 0 1.8 0 2.8zM220.5 151.2c.3.9.6 1.7.9 2.4.1.3.3.7.2.8-.2.3-.6.5-.9.5-.2 0-.5-.4-.6-.6-.3-.8-.7-1.5-.2-2.3.1-.4.4-.6.6-.8zM235.7 149.7c.2 1.3.5 2.7.8 4-1.6.2-1.7.1-1.6-1.2.1-.9.2-1.8.3-2.8h.5zM185.6 105.9c.2 0 .3 0 .5.1-.1.3-.1.6-.2.9-.4 1.4-1.3 2.7-.1 4.4-2.1-1.2-2.2-2.5-.8-4.1.3-.5.4-.9.6-1.3 0-.1 0 0 0 0zM176.5 128.9c.5.6 1.2 1.1 1.6 1.8.6 1 1 2.1 1.4 3.1-.8-1.1-1.5-2.1-2.3-3.2-.1 0-.1 0-.2.1.1.4.2.9.3 1.3-.1 0-.1.1-.2.1-.2-.4-.5-.8-.7-1.2-.2-.4-.2-.9-.3-1.3.2.1.4.2.7.4l.2-.2c-.1-.4-.2-.6-.5-.9.1 0 0 0 0 0z" class="st2"></path>
  <path d="M196.2 151.6c-.9-.7-1.8-.5-2.7-.1-.2.1 0 1 0 1.5-.3-.2-.8-.6-1.2-1-.2-.2-.3-.6-.3-.8.1-.2.5-.4.7-.4.9.2 1.4-.3 1.7-1.1.8.8 1.3 1.4 1.8 1.9zM198.7 138.6c-.9-.3-2.3-.4-2.7-1.1-.5-.8-1.1-1.2-1.7-1.6-.2-.2 0-.8 0-1.2.8.8 1.6 1.6 2.4 2.3.6.6 1.3 1.1 2 1.6 0 .1 0 0 0 0zM110.5 142.6c1.5-.2 2.4.6 2.3 1.8 0 .2-.2.5-.4.6-.2.1-.6 0-.7-.2-.4-.6-.7-1.4-1.2-2.2zM176.6 128.9c-1.1-1.1-2.1-2.2-3.1-3.3-.2-.3-.1-.8-.1-1.3 1 1.2 1.9 2.2 2.8 3.3.1.3.2.8.4 1.3-.1 0 0 0 0 0zM123.2 114.7c.4-.5.8-1.2 1.3-1.8.2.1.3.1.5.2-.2 1.3-.5 2.5-.7 3.9-.4-.8-.7-1.5-1.1-2.3zM86.2 107c-.2.3-.4.6-.7.9-.1.1-.4.2-.6.1-.2-.1-.3-.3-.4-.5-.1-.4-.1-.8-.2-1.5.3 0 .9 0 1.4.1v-.9c1 .4.6 1.1.5 1.8zM102.3 113.5l.3.9c0 .1.1.2.2.3.2-.2.4-.3.7-.5-.1 1.2-.2 2.2-.3 3.5-.2-.3-.4-.4-.4-.7-.2-.5-.2-1.3-.6-1.6-.8-.8-.5-1.3.1-1.9zM217.9 138.4c-.2.8-.3 1.5.7 1.9.2.1.3.7.4 1.1.1.5.1 1 .2 1.5-1.4-.6-2.3-3.5-1.3-4.5zM97.9 106.5c-1.3-.9-1.6-1.5-1.5-3.3 1.3.7 1.4 1.9 1.5 3.3zM74.2 93.9c1.4-.5 2.7-1.1 4.1-1.7.1.9.1.9-1.8 1.1.1.2.2.3.4.6-.9.1-1.8.1-2.6.2 0 0 0-.1-.1-.2zM125.9 118.5c.6.6.4.5 0 1-.5.6-.5 1.5-.7 2.3-.1.3.1.6.1.9-.6-.2-1.1-.4-1.5-.6.6-1.1 1.3-2.3 2.1-3.6zM207.1 130.8c.4-.1.7-.1 1.1-.2 0 .2-.1.4-.1.6 1.3.2 1.5.8.6 2.1-.2-.5-.4-1.1-.6-1.7h-.4c-.2.4-.4.7-.6 1.1h-.2c.1-.7.2-1.3.2-1.9zM205.8 119.2l-.5.5c-.8-.8-1.5-1.6-2.4-2.5.5-.4.9-.8 1.3-1.1.2 1.2.2 2.5 1.6 3.1zM182.7 129.8c-.6-.4-1.1-.6-1.6-.9-.2-.2-.4-.4-.5-.7 0-.1.2-.5.3-.5.3 0 .7 0 .8.2.4.6 1.7.8 1 1.9zM82 92.7c1.5-.2 2.9-.4 4.5-.6-.7.8-3.4 1.3-4.4.9-.1-.1-.1-.2-.1-.3zM157.2 85.2c.7-.8 1.3-1.5 2.1-2.3-.1.9-.1 1.6-.3 2.2-.4.9-1 .6-1.8.1zM190.1 146.3c-.3-.1-.7-.3-1-.4l-.3.3 2.2 2.2c-1.6-.1-2-1.7-3-2.6-.2-.2-.4-.5-.5-.6h1.6c.1.3.6.7 1 1.1zM147.9 152.4c-.7.1-1.3.2-2 .4-.9.3-1.4-.1-1.4-1.1 1.3-.2 2.5-.3 3.4.7zM226.2 141.9c.2.3.4.5.7.9-.4.1-.7.2-1 .3.1.5.1 1 .2 1.5-1.5-1.4-1.5-1.6.1-2.7zM172.6 145.6c.4.4.7.7.3 1.3-.3.5-.4 1.3-.6 2.2-.1-.8-1.5-1.1-.2-1.8 0 0 0-.3-.1-.4-.3-.6-.1-1 .6-1.3zM193.8 139.5c-.4-.2-.7-.4-.7-.4-.4-1-.7-1.8-1-2.6.5.5 2 0 1.2 1.6.2.3 1.3.5.5 1.4zM73.3 106.4c-.2 1.3-.3 2.4-.4 3.4-1.2-.6-1.1-1.7.4-3.4zM91.6 93.2c.1-.7.2-1.3.3-2 .9.4 1.6.8 2.4 1.1-.8.3-1.6.5-2.7.9zM111.3 96.4c.1.9.2 1.8.3 2.9-.2 0-.7.1-.9-.1-.2-.3-.2-.8-.2-1.2.1-.5.3-1 .4-1.5.2-.1.3-.1.4-.1z" class="st2"></path>
  <path d="M204.2 116.1c0-.8.5-1.4 1.2-1.3.4.1.7.9 1 1.4-.1.1-.2.1-.4.2-.2-.4-.4-.7-.6-1.1-.1.5-.3.9-.4 1.4-.3-.2-.5-.4-.8-.6zM152.6 139.7c-.4.2-.6.3-.9.4-1.9-.5-1.4-1.9-.9-3.2 0 .5-.1 1-.1 1.4.1.4.3.7.6 1 .1.1.6-.2 1-.3.1.1.2.4.3.7zM204.4 139.7l-1.4-2.1c.8.1 1.5 0 1.6.2.2.5.2 1.2.2 1.8-.1 0-.3 0-.4.1zM73.1 119c1-.7 1.6-1.1 2.2-1.6.1.1.2.1.3.2-.4.7-.7 1.3-1.2 1.9-.1.1-.7-.3-1.3-.5zM89.8 112.7c1.3 1.2 1.3 1.2 0 3.2v-3.2zM99.2 119c0 .2 0 .4.1.7-.5 0-.9.1-1.3.1-.3-.7-.7-1.2-1.1-2 .2 0 .6-.2.7-.1.3.5.5 1 .8 1.6.1-.1.4-.2.8-.3zM85.8 105.1c-.3 0-.8 0-.8-.1v-2.7c0-.2.4-.4.5-.4.1 1.1.2 2.1.3 3.2zM106.9 100.1c.6 1.3 1.2 2.4 2.6 2.5-1 .4-1.6-.4-2.3-.8-.6-.3-.8-.8-.3-1.7zM64.4 106c-.1.3-.2.6-.2 1 .1.9.2 1.9.3 2.8h-.3c.2-1.1-1.3-2-.3-3.2 0-.2.3-.4.5-.6zM172.6 145.7c-.1-1.7-.1-3.5 1-4.7-.2 1.4-.5 2.8-.7 4.3 0 .1-.2.2-.3.4 0-.1 0 0 0 0zM189.8 119.7c-.3-1.2-.5-2.3-.8-3.5.1 0 .2-.1.3-.1.4 1.1.7 2.2 1.1 3.3-.2.2-.4.2-.6.3zM79.9 144.5c-1.1-.1-2.1-.2-3.2-.3 1.1-.9 2.2-.5 3.2-.1.1.2.1.3 0 .4zM117.7 85.3c-.4 1.3-.9 2.6-1.4 4.1-.6-.9.5-3.4 1.4-4.1zM152.5 94.3c-.2.9-.3 1.7-.5 2.6-1-.2-1-.2.5-2.6zM161 130.3c-.1-.6-.2-1.1-.2-1.6.8.9 1.6 1.7 2.4 2.5-.2-.1-.6-.2-.9-.4-.5-.1-.9-.3-1.3-.5-.1 0 0 0 0 0zM77.9 154.3c.9-.9 1.8-.9 2.4 0h-2.4zM177.3 135.1c-1.1-.6-1.5-1.4-.9-2.5.1.5.2 1.1.4 1.7l.6-.3c0 .4 0 .6-.1 1.1zM155.3 108.3c.4.4.7.6 1.1.9-.4.3-.7.5-1 .8-.3.2-.5.5-1 1 .3-1 .6-1.8.9-2.7zM177.7 128.3c-.9-1.1-1.8-2.2-2.9-3.4 1.3.5 3.1 2.9 2.9 3.4zM211.2 140c-1.8-1.6-1.9-1.7-1.1-2.6.3.9.7 1.8 1.1 2.6zM182.5 127.3l-1.5-2.4c.6.6 1.9.6 1.9 2-.2.1-.3.3-.4.4zM111.9 88.7l.3 2.4c-1.3-.2-1.4-1-.3-2.4zM201.6 119.8c.2-1 .4-1.9.6-2.9.2 0 .3.1.5.1-.2 1-.3 1.9-.5 2.9-.2 0-.4 0-.6-.1zM136 149.6c-.3.8-.8 1.6.7 2-.4.4-.6.6-.8.9-1-1.3-1-1.9.1-2.9.1 0 0 0 0 0zM179.7 140.8c-1.4.4-1.5.5-.7 2.4-.3-.3-.9-.7-.8-1 .1-.6.6-1.2.9-1.8.2.1.4.3.6.4zM175.7 147.5c.3.8.5 1.4.7 2 0 .1-.1.1-.1.2l-1.4-1.4c.2-.3.5-.5.8-.8zM71.8 96.5c-.2-.4-.3-.7-.5-1.1l.3-.3.6 1.2c.1 0 .1-.1.2-.1 0-.2 0-.5.1-1.1.3.7.5 1.2.7 1.6-.1.1-.1.2-.2.3-.4-.1-.8-.3-1.2-.5zM141 90.8v2.6h-.4c0-.9-.1-1.7-.1-2.6h.5zM122.1 109.5c-.2 1.3-.4 2.6.4 3.9-1.2-1.2-1.3-2.2-.4-3.9 0 .1 0 0 0 0zM98.8 98.3c.2 1.2.3 2.1.4 3-.8 0-.9-.3-.4-3zM69 109.7c.2-1.1.4-2.1.6-3.2h.3c-.1 1.1-.3 2.1-.4 3.2H69zM173.7 88.3c-.2.6-.3 1-.5 1.6-.4-.7-.7-1.2-1.2-1.9.6.1 1.1.2 1.7.3zM201 149.2c.8-.6.8-.6 2 1.5-.6-.5-1.3-1-2-1.5zM97.3 116.9c.1-.6.2-1 .3-1.8.5.8.8 1.3 1.3 2-.8-.1-1.1-.1-1.6-.2zM214.8 148.3c-1.1-1.4-1.2-2.5-.6-3 .2.8.3 1.8.6 3zM185.1 132.7c-.5-.6-1-1.3-1.5-1.9.6.6 2 .4 1.9 1.6-.2.2-.3.3-.4.3zM161.3 142.9c-.4.5-.7 1-1.2 1.5-.1.1-.4 0-.6-.1-.1-.1-.1-.4 0-.5.4-.4.9-.7 1.4-1.1.2.1.3.2.4.2zM114.7 108.2c-.1.8-.2 1.5-.4 2.3h-.3c.1-.8-.7-1.7.7-2.3zM68 109.6v-2.5c1.1 1 .3 1.7.3 2.5H68zM96.7 106.3c0 .8 1.6 1.2.6 2.3-.3-.8-.6-1.5-.9-2.2 0 0 .1-.1.3-.1zM82.8 106.2c.1.6.1 1.2.2 1.9-.3-.1-.8-.2-.8-.3 0-.6.2-1.1.3-1.7 0 .1.2.1.3.1zM122.2 104.8c-.1-.3-.3-.5-.4-.8.3-.2.7-.5 1.1-.7.6.7.5.8-.7 1.5zM162.8 116.7l2.1 1.8c0 .1-.1.1-.1.2-.8-.5-1.5-1-2.3-1.6 0-.1.1-.3.3-.4zM135 96.1c-.2-.1-.6-.4-1-.7.2-.5.4-1.1.6-1.8.1 1 .3 1.8.4 2.5zM204.9 130.4c-.2 1-.3 1.6-.4 2.5-1.2-1.2-.4-1.7.4-2.5zM186.6 142.6c.5.6 1.1 1.2 1.6 1.8-1.2-.1-1.8-.8-1.6-1.8zM88.7 152c-.4-.4-.7-.8-1.1-1.1 0-.1 0-.2.1-.3.4.1.8.1 1.3.2-.2.5-.3.9-.3 1.2zM111.8 81.7c-.2-.7-.4-1.5-.6-2.2.1 0 .2 0 .3-.1.4.7 1 1.4.3 2.3zM204.2 147.9l.9 1.5c-.1.1-.2.1-.3.2-.4-.5-.8-.9-1.1-1.4.1-.1.3-.2.5-.3zM183.3 132.2c-.8-.7-1.4-1.2-2-1.8 1 .3 2 .3 2 1.8zM83.8 102.9c-.7-1.1.4-1.6.4-2.4.1 0 .2.1.4.1-.2.8-.5 1.5-.8 2.3zM213 142.9c-.2.7-.4 1.4-.6 2.2h-.2c.1-.7.1-1.5.2-2.2h.6zM141.9 146.1c-.7.8-1.1.6-1.5-.7.5.2.9.4 1.5.7zM169.5 119.5c-.7-.5-1.5-1.1-2.2-1.6.1-.1.2-.2.2-.3.7.6 1.4 1.1 2.2 1.7l-.2.2zM182.3 148.5c.3-1 .5-1.7.7-2.4.4.4.2 1.4-.7 2.4zM132 86.1c.1 1 .3 2 .4 3h-.2l-.6-3c.2.1.3.1.4 0zM172.7 96.9c-.3.6-.6 1.1-1 1.7-.1-.1-.3-.1-.4-.2.3-.5.6-1.1 1-1.6.1 0 .2 0 .4.1zM80.2 97.7c-1.4-.1-1.5-.2-1.4-1.8.5.7 1 1.2 1.4 1.8zM186.8 122.2c0 .7-.1 1.3-.1 2h-.3v-2h.4zM111.6 95.8c-.4 0-.8 0-1.3.1 0-.5.1-1 .1-1.4.4.3.7.7 1.2 1.3zM204.5 127c-.8.5-1.4 1.3-2.6.7.9-.2 1.7-.4 2.6-.7zM139.2 89.9v-2.3h.4c-.1.8-.2 1.5-.3 2.3h-.1zM134 100.3c-.2-.7-.3-1.4-.5-2.1.1 0 .3-.1.4-.1.1.7.3 1.4.4 2.2h-.3zM127.2 108.9c1.1.5 1.6 1.3 1.5 2.5-.5-.9-1-1.7-1.5-2.5zM98.2 114.5v-2.7c.9.8.3 1.8 0 2.7zM207.3 122.1c.3-.6.6-1.3 1-2.2 0 .8.1 1.4.1 2-.4.1-.8.2-1.1.2-.1 0 0 0 0 0zM169.9 122.1c.3.4.7.8 1 1.3-1.5-.2-1.5-.2-1-1.3zM190.9 104.1c-.7-.3-1.6-.1-1.2-1.2.2-.5.2-1.2 1.1-.9 1.7.6-.2 1.3.1 2.1zM12.9 141.4c-.9-.2-1.7-.3-2.6-.5-.3 0-.5-.1-.8-.1-.6.1-1.1.2-1.8.4.5.2 1 .3 1.5.5h4l-.3-.3c0-.1 0 0 0 0zM71.2 135.5c-.1.2-.2.5-.3.5-1.4.2-.6 1.1-.4 1.8.5-.9 1-1.8 1.5-2.8-.1-.1-.2-.1-.3-.2-.3.3-.4.5-.5.7zm6.7-6.9c0-.1-.1-.4-.2-.4-.1-.1-.4 0-.4.1-.5.5-.4 1.4.2 2 .1-.6.3-1.2.4-1.7zM39.8 118.8c1.2.5 1.7-.5 2.4-1.2.1 1.1.1 2 .2 3.2.6-1.2 1.5-2.1 1-3.4-.1-.3.6-.9 1-1.4.2-.2.3-.5.5-.8l-.3-.3c-.6.4-1.2.7-1.8 1.1-1-1.4-.4-2.7.3-4.1.3-.6.1-1.3 0-2-.6 1.3-1.3 2.6-1.9 4 .2-.1.5-.1.6-.2.5 2.1-1 3.5-2 5.1zM26.8 127.1c.6-.4 1.1-.9 1.7-1.3l.2.2c-.3.3-.7.7-1.1 1 .2.1.4.2.7.4-.4.4-.7.8-1.1 1.2 1.5-.7 3.2-.9 4-2.6.1-.1.2-.3.2-.4 0-.8.1-1.5.6-2.1.3-.4-.2-.9-.8-.8-.3 0-.6-.2-.8-.3.1.4.1.9.3 1.5-.9.4-2 .8-2.9 1.4-.5.4-.8 1.1-1.2 1.7 0 0 .1 0 .2.1zM17 118.8c-.1.8-.3 1.6-.5 2.4-.1 0-.4-.1-.7-.1.1.4.1.9.2 1.3h-.2c-.1-.3-.2-.6-.4-1-.2.3-.4.5-.6.7 1.4 1.5 1 3.3.9 5.2.7-.8 1.5-1.6 2.2-2.4v-1.5c-.2-.2-.4-.3-.5-.6-.4-1-.6-2-.1-3 .1-.2 0-.5 0-.7 0-.1-.1-.2-.3-.3zM63.7 121c-.3.1-.8 0-1 .2-.4.4-.9 1-.8 1.5.2 1.3-.8 2.1-1.1 3.1-.1.3-.3.5-.4.7.1 0 .2.1.2.1.6-.9 1.2-1.7 1.8-2.7.1.3.2.5.3.7h.3c.1-.8.1-1.6.2-2.6.2.2.2.3.5.7V121c0-.1 0 0 0 0zM52.6 110.3c.1-.6.1-1.3.2-2-.3.1-.5.2-.8.3.1-.2.2-.3.2-.4.3-.7.6-1.3.7-2 0-.2-.6-.6-.9-.9-.1 0-.2.1-.3.1.1.5.1 1 .2 1.6-.2.1-.7.2-.7.4-.1.4.1.8.2 1.2l.9 1.8c.1-.1.2-.1.3-.1zM65.8 154.1c.1-.5.1-.9.2-1.4h.2c.1.2.2.5.3.8 1.3-.5 1.5-1.8 2.5-2.8-1 .2-1.7.9-2.4 0-.5 1.1-1.1 2.1-1 3.3 0 0 .1 0 .2.1zM49 124.6c.4-.4.7-.9 1.1-1.3.1 0 .2.1.3.1-.1.8-.2 1.7-.2 2.5 0 .2.3.5.5.7.1 0 .2-.1.4-.1v-5.6c-.8 1.4-1.4 2.5-2.1 3.7zM12.9 141.3c.9-.3 1.8-.6 2.6-.9-.8-.9-1.9-.5-2.8-.3-1 .3-1.5.2-2-.6-.7.2-1.3.4-2 .6 0 .1 0 .1.1.2 1.2.1 2.3.3 3.5.4.4.1.8.1.6.6 0 .1 0 0 0 0zM49.3 115.3c.4.4.8.7 1.2 1.1v-1.7h.2c.2.3.3.5.5.8.1 0 .1-.1.2-.1-.5-1.1-.9-2.2-1.4-3.3-.1 0-.3.1-.4.1 0 1 .1 2 .1 3-.1-.1-.3-.2-.6-.3.2.1.2.3.2.4 0 .1 0 0 0 0zM26.3 136.2c-.7-.5-1.5-1-2.1-1.4.1.8.2 1.8.4 3 .3-.3.5-.4.6-.7l.3-.9c.3.2.7.4 1 .5.1 0 .1.1.2.1 1.3-1.2.3-2.3.1-3.7-.4 1.2.9 2.3-.5 3.1zM68.1 122c-.2.1-.5.1-.5.2-.2.9-.4 1.8-.5 2.7 0 .2.3.5.7.7 0-.2-.1-.4-.1-.5 0-.2 0-.4.1-.6 0-.1.4.1.5 0 .3-.1.6-.3.7-.5.2-.6.3-1.3.5-2-.3.1-.4.2-.5.2-.3.6-.6 1.2-.8 1.7-.1-.1-.3-.1-.4-.2.1-.5.2-1.1.3-1.7zM59.7 122.1c-.8.6-1.1 1.3-.7 2.5.1.5.4 1-.2 1.4 0 0-.1.1-.1.2-.2.9-.3 1.8-.5 2.6.5-.3.8-.6.8-1.5.1-1.8.4-3.5.7-5.2zM70.2 119.4c1.3-1.4 1.5-1.9 1.6-3.9-.6.6-1.3 1.1-1.5 1.7-.3.6-.1 1.4-.1 2.2zM49.3 115.4h-.4c.1.2.1.5.2.7.3 1.1 1 2.1.1 3.4 1.6-.9 1.7-2 .6-3.2-.2-.2-.3-.6-.5-.9 0-.1 0 0 0 0zM56.4 133.4c-.4.5-.9.9-1.2 1.4-.5.8-.8 1.6-1.1 2.4.6-.8 1.2-1.7 1.8-2.5h.2c-.1.3-.2.7-.2 1 .1 0 .1.1.2.1.2-.3.4-.6.5-.9.1-.3.2-.7.3-1.1-.1.1-.3.2-.6.3-.1 0-.1-.1-.2-.1 0-.2.1-.4.3-.6zM12.6 138.2c.7-.6 1.4-.4 2.1-.1.2.1 0 .7 0 1.1.2-.2.6-.4.9-.7.1-.1.3-.4.2-.6 0-.1-.4-.3-.5-.3-.7.2-1.1-.2-1.4-.8-.4.5-.9 1-1.3 1.4zM63.7 120.9c.7-.3 1.8-.3 2.1-.8.4-.6.8-.9 1.3-1.3.2-.1 0-.7 0-.9-.6.6-1.2 1.2-1.9 1.8-.4.4-1 .8-1.5 1.2 0 .1 0 0 0 0zM57.1 114.8c-.3-.1-.6-.1-.8-.1 0 .2.1.3.1.5-1 .1-1.1.6-.5 1.6.1-.4.3-.9.5-1.4h.3c.2.3.3.5.5.8h.2c-.2-.4-.3-.9-.3-1.4zM33.5 125.8l.4.4c.6-.6 1.2-1.3 1.8-2-.4-.4-.7-.6-1-.8-.1.9-.1 2-1.2 2.4zM39.6 131.2c.5-.3.9-.5 1.2-.7.2-.1.3-.3.4-.5 0-.1-.2-.4-.3-.4-.2 0-.6 0-.6.1-.2.5-1.3.7-.7 1.5zM71.6 99.2c-.5-.6-1-1.1-1.6-1.8.1.7 0 1.3.2 1.7.3.7.8.5 1.4.1zM17.4 134.1c.3-.1.5-.2.8-.3.1.1.1.2.2.2-.6.6-1.1 1.2-1.7 1.7 1.3-.1 1.6-1.4 2.4-2 .2-.1.3-.4.4-.5h-1.2l-.9.9zM31.1 133.5c-.3.3-.6.5-.2 1 .3.4.3 1 .5 1.7.1-.6 1.1-.9.1-1.4 0 0 0-.2.1-.3.2-.5.1-.8-.5-1zM67.6 121.6c.3-.2.5-.3.5-.3.3-.8.5-1.4.8-2-.4.4-1.6 0-.9 1.2-.3.3-1.1.4-.4 1.1z" class="st2"></path>
  <path d="M34.7 123.4c0-.7-.4-1.1-1-1-.3.1-.5.7-.8 1.1.1.1.2.1.3.2.2-.3.3-.6.5-.8.1.4.2.7.3 1.1.3-.3.5-.5.7-.6zM59.2 121.8c.3-.5.6-.9 1.1-1.6-.6.1-1.2 0-1.2.1-.2.4-.1.9-.2 1.4.1 0 .2 0 .3.1zM31.1 133.5c.1-1.4.1-2.7-.8-3.7.2 1.1.4 2.2.6 3.4 0 .1.1.2.2.3zM46.1 126.2l.6-2.7c-.1 0-.2 0-.2-.1-.3.9-.6 1.7-.9 2.6.1.1.3.1.5.2zM75.3 106.3c.1.7.3 1.4.4 2 .7-.1.7-.1-.4-2zM55.8 138.3c.9-.5 1.2-1.1.7-2-.1.4-.2.9-.3 1.3-.2-.1-.3-.1-.5-.2 0 .3 0 .5.1.9zM55.5 133c.7-.8 1.4-1.7 2.2-2.7-.9.4-2.4 2.3-2.2 2.7zM53.9 122c1.4-1.2 1.5-1.3.9-2-.3.7-.6 1.4-.9 2zM51.8 132.2c.4-.6.8-1.2 1.2-1.9-.5.5-1.5.5-1.5 1.6l.3.3zM36.8 126.3c-.2-.7-.3-1.5-.5-2.2-.1 0-.3.1-.4.1.1.8.3 1.5.4 2.3.2-.1.3-.1.5-.2zM25.6 129.7c1.1.3 1.2.4.5 1.9.2-.3.7-.6.7-.8-.1-.5-.4-.9-.7-1.4-.2.1-.4.2-.5.3zM28.7 135c-.2.6-.4 1.1-.5 1.5l.1.1 1.1-1.1c-.3-.1-.5-.3-.7-.5zM58.6 101.6c.2.5.2.8.4 1.3.3-.5.6-.9.9-1.5-.4.1-.8.1-1.3.2zM49.7 136.4l1.2-1.5c-.5.5-1.5.3-1.5 1.3.1.1.2.2.3.2zM58.8 114.5c.1.8.2 1.3.3 1.9.9-.9.3-1.3-.3-1.9zM20.2 131.1c-.4.5-.8.9-1.3 1.4.9 0 1.5-.6 1.3-1.4zM51.1 136c.6-.5 1.1-.9 1.5-1.4-.7.2-1.5.2-1.5 1.4zM23.6 135.8c-.2-.8-.4-1.3-.5-1.9-.5.3-.3 1.1.5 1.9zM59.4 108.3c.3.4.5.9.8 1.3.1-.1.2-.1.3-.2-.3-.4-.5-.8-.8-1.2 0 0-.1.1-.3.1zM48.3 128.2c0 .5.1 1 .1 1.6h.2v-1.6h-.3zM32.3 128.1c-.2-.5-.5-1-.8-1.7 0 .7-.1 1.1-.1 1.6.4 0 .7.1.9.1.1 0 0 0 0 0zM45.2 114c.5-.2 1.2-.1.9-.9-.1-.4-.2-1-.8-.7-1.4.4.1 1-.1 1.6zM128.6 64.7c.1 1 .8 1.8 1.4 3.1.5 1 1.3 1.1 2.1 1.9.6.6.8 1.5 1.4 2.2.9 1.1 2.8 2.6 3.5 3.8.3-.8-1.3-2.6-1.9-3.6-.7-1.1-1-2.8-2-3.7-.6-.6-1.4-.8-2-1.3-1.2-1-1.6-1.5-2.4-2.9 0 .2-.2.8-.1.5zM132.2 62.7c.3.3.8 2.9 1.6 2.8.1-.5-.3-.9-.5-1.3-.2-.5-.3-1.1-.4-1.6-.1 0-.3 0-.7.1zM135.7 66.7c.1.3.1.6.3.8.2-.2.2-.7 0-.9 0 0 0 .1-.1.2" class="st2"></path>
  <path d="M275.5 153.5c-4.3-.7-8.6.6-12.8 0-4.1-.6-8.9-1.4-13.1-1.8-4.4-.4-8.1-.5-12.7-.5-4.9 0-12.2-1.8-17.1-1.5-10.7.6-21.9-1.2-32.6-1.9-10.1-.7-20.3-2-30.3-3.2-15.2-1.8-30.4-4.6-45.6-6.8-17.7-2.6-35.8-3.6-53.7-2.2-5.5.4-10.7.2-16-.2-5.4.1-10.9-.4-16.4-1.1-.5-.1-.9-.1-1.4-.2-2.7-.3-5.3-.7-7.9-1.4-3.2-.6-6.5-1.1-9.7-1.3v25.5h283.6c-4.6-1.6-8.3-2.4-14.3-3.4z" style="fill:#bfab58"></path>
  <path d="M31.9 134.9c-3.1-.2-6.1-.5-9.2-1-5.3-.8-10.9-2.5-16.5-2.9v3.1l.5.5c4.3-3.5 5.5-3.3 9.5 1.3.3.4.9.7 1.5.7 1.5.2 3.1.4 4.6.4 1.2 0 2.4.6 3.4-.9.6-.8 4.1.4 4.7 1.4.4 0 .9.1 1.3.1l-.8-.8c.4-.6.7-1.3 1-1.9zM20.4 139.8c-1.2.3-2.2.5-3.4.8v3.3c-.8.3-1.8.6-2.6 1.1-.2.1.1 1.4.5 1.7 2.7 2.6 5.9 4 9.7 4.2-1-3.5-1.1-3.6-3.5-2.5.3-.8.8-1.3 1.3-1.9.3-.3.7-.6.8-1 .1-.2-.4-.7-.7-.8-2.3-.3-2.2-1.7-1.9-3.4.1-.4-.1-1-.2-1.5zM24.6 151zM216.4 156.9h3.3c-1.4-1.1-3.3-1.8-5-2.7-.2.1-.4.3-.5.4.4.4.7.8 1.1 1.2l1.1 1.1zM187.5 156.9c-.2-.3-.3-.5-.4-.8-1.2-3.4-1.8-3.6-4.1-1.7.6.8 1.8 1.8 2 2.4h2.5zM11.7 148.2c-.3-.1-1 .7-1.5 1.1.4.3.8 1.1 1 1 2.2-.8 3.2 1.1 4.6 2.1.3-.4.7-.9 1.2-1.6-1.7-1-3.5-1.9-5.3-2.6zM107.9 152.2c-.4.1-1.1-.3-1.5-.7-1.4-1-2.7-2-4.1-3-.4-.3-.8-.4-1.2-.5-.9-.2-1.8-.3-2.8-.4.2.8.6 1.6 2 1.1.5-.2 1.3 0 1.7.3 1.2 1.1 2.3 2.3 3.5 3.4.8.7 1.8 1.4 2.8 1.8.6.2 1.4 0 2.4-.1-.9-.9-1-2.5-2.8-1.9zM93.1 150.3c.2-1 .4-1.8.5-2.3-1.9-.5-2.9 2.7-5 .6-.5.4-1 .9-1.7 1.5h3.6c.2.6.5 1.5.9 2.4.2 0 .4-.1.5-.1v-1.9c1.9.5.9 2.1 1.4 3.4.4-.8 1-1.4.9-1.9-.2-.7-.9-1.3-1.1-1.7zM142.1 150.8c1.2.5 2.4 1.1 3.6 1.7.1-.2.2-.5.3-.7 1.6-.3 2.7 1.6 4.6.9-2.6-1.3-5.1-2.6-7.4-3.8-.3.5-.7 1.2-1.1 1.9zM142.1 150.8c0-.1 0-.1 0 0zM158.4 151.3s0 .1 0 0c0 .1 0 .1 0 0 0 .1 0 0 0 0zM155.4 150.4c-1-.2-2.1-.4-3.2-.5-.7 0-1.3.3-2.3.6 1.3 1.3 1.9 1.2 2.2-.1.3.2.5.3.6.4.1.2.1.4.2.5.2-.3.4-.5.6-.8 2.1 2.4 2.9 2.5 4.9.9-.5-.1-1-.1-1.4-.2-.5-.2-1-.7-1.6-.8zM45.9 156.9c-.1-.2-.3-.4-.2-.5.5-.7 1.1-2 1.7-2 2.5-.1 5 0 7.4.2 1.3.1 2.7.4 4 .6h.1c.2.1.4.3.6.3 2.9.3 5.8.3 8.5 1.4h6.6c.3-.8.5-1.6 1-2 1.2-.9 2.7-1.4 4-2.1-.7-.5-1.3-1.2-2.1-1.3-2.4-.5-2.4-.4-2.1-2.7-3-.2-5.7-.8-6.3-4.7l-.6.3c-.1 1-.2 2-.4 3.2-.5 0-1 0-1.5.1-.5-.5-1-1-1.5-1.6-.2-.8-.4-1.5-.6-2.3-.7.7-1.3 1.7-2.2 2.1-2.3 1.1-4.7 1.9-7.1 2.8l.3.3c-.3.9-.8 1.7-.9 2.6-.2 1.7-1 1.8-2.4 1.7-3.5-.4-6.5-1.9-9.6-3.5-1.1-.6-2-1.1-2.1-2.6 0-.5-.9-1.2-1.5-1.5-.3-.1-1 .4-1.3.8-.8 1.1-1.4 2.3-2 3.5 1 .8 1.9 1.6 2.8 2.4l-.1.6c-.7.1-1.4.1-2.3.2.7.5 1.3.9 1.6 1.1-.3.3-.7.5-1 .5-.2 0-.5.1-.7.2-.2-.2-.3-.4-.5-.6.1.2.2.5.3.7-.5.2-.9.5-1.1 1.2 0 .1-.1.2-.1.3h11.3zm-4.9-3.8c.1.1.2.3.3.4-.4.6-.8 1.1-1.1 1.6-.2-.4-.4-.9-.5-1.3.5-.2.9-.5 1.3-.7zM21.7 156.9h4.6c.2-.1.5-.2.7-.4.1.1.1.2.2.4h6.2c1.3-.9.9-1.9.2-2.8-1.1.7-2.3 1.5-3.6 2.3-.5-1.9-1.7-1.5-3.1-1.3.4-1 .7-1.8 1-2.6h-.5c-1.4 2-3.6 2-5.6 2.2-1.4.1-2.7-.4-3.3 1.5 1.1.1 2.3.1 3.6.2 0 .2-.2.3-.4.5zM78.8 156.9h6.8c.1-.5.3-1 .5-1.4.8-1.8 0-3.6-1.9-3.3-.7.1-1.3.1-1.9-.1-.2-.1-.3-.1-.4-.1-.3-.1-.7-.3-1-.4h-.5c.3.4.5.7.8 1-.1.2-.2.3-.4.4-.4 0-.8-.1-1.1-.1.1.1.2.2.2.4-.6.2-.7.7-.6 1.4.1.6-.3 1.3-.5 2.2z" class="st5"></path>
  <path d="M48.1 146.2c-1.1-.2-2.1-.4-2.8-.6-.6-.7-1.1-1.2-1.6-1.7-.2.1-.4.3-.6.4.5 1.2.6 2.8 1.5 3.5 1.5 1.4 2.1-1.1 3.5-1.6z" class="st5"></path>
  <path d="M4.1 156.2h291.1v32.2H4.1z" style="fill:#6b909a"></path>
  <path d="M292 8v284H8V8h284m8-8H0v300h300V0z" class="st7"></path>
  <path d="M3 187.9h292" style="fill:none;stroke:#fff;stroke-width:8;stroke-miterlimit:10"></path>
  <path d="m24 234 3.3-.9v-17.3c0-.8-.1-1.3-.2-1.6-.1-.3-.4-.5-.9-.7l-2.3-1.3.1-4.1h24.5c.2 3.2.3 6.3.3 9.3l-3.3.2-3.2-4-6.8-.2v7.4l9.6-.8v7l-9.6-1v7.3l7.5-.1 3.5-4 3.3.2c-.1 3.2-.3 6.3-.7 9.3h-25L24 234zM52.1 233.9l2.8-.8v-17.3c0-.8-.1-1.3-.2-1.6-.1-.3-.4-.5-.9-.7l-1.9-1.1.1-4.3h14.1l.2 4.6-3.3.9v19.5l5.7-.1 3.8-4.4 3.5.2c-.1 2.5-.3 5.8-.6 9.8h-23l-.3-4.7zM89.4 234l3.3-.9v-17.2c0-.8-.1-1.3-.2-1.6-.1-.3-.4-.5-.9-.7l-2.4-1.3.3-3.7c2.3-.4 4.5-.6 6.5-.8 2-.2 4.2-.2 6.6-.2 3.3 0 5.9.3 7.8 1 2 .7 3.4 1.8 4.3 3.3.9 1.5 1.4 3.4 1.4 5.9 0 3.2-1.1 5.6-3.4 7.5-2.3 1.8-5.4 2.7-9.3 2.7l-2.5-.1v3.4c0 .7.1 1.2.2 1.4.1.2.4.4.8.6l2.8 1.6-.2 3.7H89.6l-.2-4.6zm18-11.6c.3-1.5.5-3 .5-4.7 0-1.8-.3-3-1-3.8-.7-.8-1.8-1.1-3.3-1.1-.5 0-1.4.1-2.7.2v9.6c.8.2 1.8.3 2.9.3 1.6 0 2.8-.1 3.6-.5zM118.4 234l3.3-.9v-17.3c0-.8-.1-1.3-.2-1.6-.1-.3-.4-.5-.9-.7l-2.4-1.4.2-4h14.5l.2 4.6-3.3.9v17.6c0 .7.1 1.2.2 1.4.1.2.4.4.8.6l2.3 1.4-.1 3.9h-14.4l-.2-4.5zM136.2 234l3.3-.9v-17.2c0-.8-.1-1.3-.2-1.6-.1-.3-.4-.5-.9-.7l-2.4-1.3.3-3.7c4.5-.7 8.9-1 13.1-1 3.3 0 5.9.3 7.9 1 2 .6 3.4 1.7 4.4 3 .9 1.4 1.4 3.2 1.4 5.4 0 1.9-.5 3.5-1.4 4.9-1 1.4-2.3 2.5-4.1 3.2l7.2 11.7v1.8h-8.2l-6.7-12.1h-2v5.1c0 .7.1 1.2.2 1.4.1.2.4.4.8.7l1.9 1.1-.2 3.9h-14l-.4-4.7zm17.9-13c.3-1.1.5-2.4.5-3.9s-.3-2.6-1-3.2c-.6-.6-1.7-.9-3.2-.9-.8 0-1.7 0-2.6.1v8.1c.8.2 1.7.3 2.8.3 1.5-.1 2.7-.2 3.5-.5zM166.4 234l3.3-.9v-17.3c0-.8-.1-1.3-.2-1.6-.1-.3-.4-.5-.9-.7l-2.3-1.4.2-4H181l.2 4.6-3.3.9v17.6c0 .7.1 1.2.2 1.4.1.2.4.4.8.6l2.3 1.4-.1 3.9h-14.4l-.3-4.5zM191.8 219.4l.8 11.8c0 .7.1 1.1.2 1.4.1.2.4.4.8.7l2.4 1.6-.2 3.8H184l-.2-4.9 2.4-.6.2-17.8c0-.6 0-1-.1-1.2-.1-.2-.3-.5-.6-.7l-1.7-1.3.3-4h9.4l13.7 17.5-.6-10.1c0-.7-.1-1.2-.2-1.4-.1-.2-.4-.4-.8-.7l-2.4-1.5.1-3.8H215l.2 4.6-2.3 1-.2 24.5-5.2 1.7-15.7-20.6zM217.5 234l3.3-.9v-17.3c0-.8-.1-1.3-.2-1.6-.1-.3-.4-.5-.9-.7l-2.3-1.3.1-4.1H242c.2 3.2.3 6.3.3 9.3l-3.3.2-3.2-4-6.8-.2v7.4l9.6-.8v7l-9.6-1v7.3l7.5-.1 3.5-4 3.3.2c-.1 3.2-.3 6.3-.7 9.3h-25l-.1-4.7zM249.3 235.5c-2.5-2.5-3.7-6.4-3.7-11.5 0-3.3.6-6.2 1.9-8.7 1.2-2.5 3-4.3 5.3-5.7 2.3-1.3 5-2 8.2-2 10.1 0 15.1 5.1 15.1 15.4 0 3.4-.6 6.3-1.9 8.7-1.2 2.4-3 4.3-5.4 5.6-2.3 1.3-5.1 1.9-8.3 1.9-5 .1-8.8-1.2-11.2-3.7zm17-3.8c.3-.9.6-2.1.8-3.5s.3-2.8.3-4.1c0-3.3-.6-5.9-1.9-7.6-1.3-1.7-3.1-2.6-5.5-2.6-1.7 0-3.4.3-5 .9-.3.6-.6 1.5-.8 2.8-.2 1.3-.3 2.8-.3 4.5 0 3.5.6 6.2 1.9 8 1.3 1.9 3.1 2.8 5.5 2.8 1.8.1 3.5-.3 5-1.2zM30.8 259.1l.7 10.3c0 .6.1 1 .2 1.2.1.2.3.4.7.6l2 1.4-.2 3.3H24.1l-.2-4.3 2.1-.5.2-15.5c0-.5 0-.8-.1-1-.1-.2-.3-.4-.6-.6l-1.5-1.1.3-3.5h8.2l11.9 15.3-.6-8.8c0-.6-.1-1-.2-1.2-.1-.2-.3-.4-.7-.6l-2-1.3.1-3.3h10.2l.2 4-2 .9-.2 21.3-4.5 1.5-13.9-18.1zM56.4 273.2c-2.1-2.2-3.2-5.6-3.2-10.1 0-2.9.5-5.4 1.6-7.6 1.1-2.1 2.6-3.8 4.6-4.9 2-1.2 4.4-1.7 7.1-1.7 8.8 0 13.2 4.5 13.2 13.4 0 2.9-.5 5.5-1.6 7.6-1.1 2.1-2.6 3.8-4.7 4.9-2 1.1-4.5 1.7-7.3 1.7-4.3 0-7.5-1.1-9.7-3.3zm14.9-3.3c.3-.8.5-1.8.7-3.1.2-1.2.2-2.4.2-3.6 0-2.9-.5-5.1-1.6-6.6s-2.7-2.2-4.8-2.2c-1.5 0-2.9.3-4.3.8-.3.5-.5 1.3-.7 2.5-.2 1.1-.2 2.5-.2 3.9 0 3 .6 5.4 1.7 7 1.1 1.6 2.7 2.4 4.8 2.4 1.4.1 2.9-.3 4.2-1.1zM89.3 275.1c.1-2.6.3-5 .6-7.3l3-.6 2 3.4c1.6.6 3 .8 4.2.8.4 0 1.3-.1 2.7-.4.1-.5.1-.9.1-1.1 0-.6-.1-1.1-.3-1.4-.2-.3-.7-.7-1.4-1.1-.7-.4-2-1-3.8-1.8-2.3-1.1-3.9-2.3-4.9-3.6-1-1.3-1.5-2.8-1.5-4.5 0-2.7.9-4.8 2.8-6.3 1.8-1.5 4.4-2.3 7.6-2.3 1.6 0 3.1.2 4.6.5 1.5.3 2.9.7 4 1.2-.1 1.5-.2 3.3-.4 5.5l-.1 1.7-2.9.4-3-3.8c-.9-.3-2.1-.4-3.5-.4-.9 0-1.6.1-2 .2-.1.5-.2.9-.2 1.2 0 .6.1 1.1.4 1.5.3.4.8.9 1.5 1.3.7.5 1.8 1 3.3 1.7 2.1 1 3.7 1.9 4.8 2.6 1.1.8 1.8 1.6 2.3 2.4.4.8.7 1.8.7 3 0 2.6-1 4.7-3.1 6.1-2.1 1.5-4.9 2.2-8.6 2.2-3 .2-6-.2-8.9-1.1zM111.7 271.9l2.9-.8V256c0-.7-.1-1.1-.2-1.4-.1-.2-.4-.4-.8-.6l-2-1.1.1-3.5h21.4c.2 2.8.3 5.5.3 8.1l-2.9.2-2.8-3.5-6-.2v6.4l8.4-.7v6.1l-8.4-.9v6.3l6.5-.1 3-3.5 2.9.2c-.1 2.8-.3 5.5-.6 8.1h-21.8v-4zM144.1 254l-1.3-1.9.2-2.8h11.4l.4 3.7-2.8.7 5.2 14.9 4.7-13.6c.1-.2.1-.4.1-.6 0-.3-.2-.6-.5-.7l-2.7-1.1.3-3.5h10.3l.2 3.4-1.7 2.2-8.6 21.1-6.8.6-8.4-22.4zM171.4 271.9l2.9-.8V256c0-.7-.1-1.1-.2-1.4-.1-.2-.4-.4-.8-.6l-2-1.1.1-3.5h21.4c.2 2.8.3 5.5.3 8.1l-2.9.2-2.8-3.5-6-.2v6.4l8.4-.7v6.1l-8.4-.9v6.3l6.5-.1 3-3.5 2.9.2c-.1 2.8-.3 5.5-.6 8.1h-21.8v-4zM202.9 259.1l.7 10.3c0 .6.1 1 .2 1.2.1.2.3.4.7.6l2 1.4-.2 3.3h-10.2l-.2-4.3 2.1-.5.2-15.5c0-.5 0-.8-.1-1-.1-.2-.3-.4-.6-.6l-1.5-1.1.3-3.5h8.2l11.9 15.3-.6-8.8c0-.6-.1-1-.2-1.2-.1-.2-.3-.4-.7-.6l-2-1.3.1-3.3h10.2l.2 4-2 .9-.2 21.3-4.5 1.5-13.8-18.1zM225.6 275.7l-.2-3.8 2.9-.8v-15c0-.7-.1-1.1-.2-1.4-.1-.2-.4-.4-.8-.6l-2-1.1.2-3.3c2.7-.2 5-.4 6.9-.5 1.9-.1 3.4-.2 4.5-.2 3.6 0 6.5.4 8.7 1.3 2.2.8 3.8 2.2 4.8 4 1 1.8 1.5 4.2 1.5 7.2 0 3.8-.9 6.8-2.6 9.2-1.6 2-3.6 3.4-6.2 4.2-2.6.8-5.8 1.2-9.7 1.2-2.8 0-5.4-.2-7.8-.4zm18.1-6.1c.2-.7.5-1.7.7-3.1.2-1.4.3-2.7.3-3.9 0-3-.6-5.2-1.8-6.6-1.2-1.4-3.1-2.1-5.6-2.1h-.9c-.3 0-.6.1-.8.1v16.2c1.1.1 2 .2 3 .2 2 0 3.8-.2 5.1-.8zM253.6 271.9l2.9-.8V256c0-.7-.1-1.1-.2-1.4-.1-.2-.4-.4-.8-.6l-2-1.1.1-3.5H275c.2 2.8.3 5.5.3 8.1l-2.9.2-2.8-3.5-6-.2v6.4l8.4-.7v6.1l-8.4-.9v6.3l6.5-.1 3-3.5 2.9.2c-.1 2.8-.3 5.5-.6 8.1h-21.8v-4z" class="st7"></path>
</svg>
